<svg version="1.1" id="Layer_1" xmlns="http://www.w3.org/2000/svg" xmlns:xlink="http://www.w3.org/1999/xlink" x="0px" y="0px"
	 width="100%" viewBox="0 0 702 448" enable-background="new 0 0 702 448" xml:space="preserve">
<path fill="#01543D" opacity="1.000000" stroke="none" 
	d="
M507.000000,449.000000 
	C338.000000,449.000000 169.500000,449.000000 1.000000,449.000000 
	C1.000000,299.666656 1.000000,150.333328 1.000000,1.000000 
	C235.000000,1.000000 469.000000,1.000000 703.000000,1.000000 
	C703.000000,150.333328 703.000000,299.666656 703.000000,449.000000 
	C637.833313,449.000000 572.666687,449.000000 507.000000,449.000000 
M378.762512,190.062332 
	C378.705292,182.364594 378.648071,174.666855 378.755859,166.049316 
	C378.702026,157.023346 378.648224,147.997375 378.763855,138.052124 
	C378.710327,131.362381 378.656799,124.672630 378.776917,117.062592 
	C378.725616,109.036659 378.674316,101.010727 378.788025,92.073418 
	C378.727203,88.055672 378.666412,84.037918 378.791962,79.140633 
	C378.734894,76.746780 378.677856,74.352936 378.778870,71.039268 
	C378.779602,63.716488 378.780365,56.393703 378.986359,48.531017 
	C378.278168,48.645885 377.569946,48.760754 376.244324,49.136078 
	C364.450073,59.093571 352.615234,69.003937 340.917847,79.073952 
	C339.598389,80.209846 338.311859,82.230576 338.276001,83.868706 
	C338.090912,92.325943 338.318237,100.792213 338.216644,109.772133 
	C338.281433,110.126640 338.346222,110.481148 338.241119,111.362122 
	C338.306885,111.903679 338.372650,112.445236 338.252136,113.908852 
	C338.301178,123.327965 338.350220,132.747070 338.207367,143.024094 
	C338.394073,148.989243 336.197510,155.814331 344.302917,159.623688 
	C348.469147,163.117401 352.635345,166.611115 357.224152,170.666641 
	C362.310242,173.304016 362.691193,178.080490 362.533447,183.836014 
	C362.622467,189.562332 362.711456,195.288651 362.545868,201.918976 
	C362.633484,210.272095 362.721130,218.625214 362.530121,227.876831 
	C362.598145,237.587753 362.666168,247.298691 362.463989,257.906891 
	C362.415192,265.151978 362.280334,272.398041 362.359772,279.641724 
	C362.391815,282.565247 361.373077,283.832306 358.357544,283.738800 
	C355.244843,283.642303 352.121063,283.904236 348.074188,283.879120 
	C342.714325,283.937866 337.354431,283.996613 331.208527,283.906250 
	C330.144318,283.932709 329.080139,283.959137 327.673431,283.699280 
	C327.430145,283.528381 327.195374,283.346527 327.000061,282.198914 
	C326.937042,276.461090 326.874023,270.723267 326.946655,264.058716 
	C326.909393,255.704117 326.872131,247.349533 326.966675,238.066620 
	C326.922150,231.040848 326.877625,224.015060 326.960449,216.061493 
	C326.913239,209.703430 326.866028,203.345367 326.952209,196.060028 
	C326.911804,185.037155 326.871429,174.014297 326.963623,162.064178 
	C326.919861,156.040421 326.876129,150.016678 326.969269,143.102600 
	C326.923340,140.403854 326.877441,137.705093 326.975098,134.156357 
	C326.927032,132.435806 326.878967,130.715240 326.960663,128.152954 
	C326.960663,125.931374 326.960663,123.709785 326.960663,120.503326 
	C313.442047,131.892746 300.727600,142.604706 287.623871,153.381912 
	C287.367737,153.541931 287.269165,153.770050 286.671448,154.612152 
	C286.575806,167.401535 286.480164,180.190918 286.196381,193.903687 
	C286.258484,201.929871 286.320557,209.956039 286.192169,218.904190 
	C286.255432,227.927979 286.318695,236.951782 286.195923,246.898529 
	C286.261047,252.982544 286.326172,259.066559 286.203918,265.933899 
	C286.203918,271.705536 286.203918,277.477173 286.203918,283.957397 
	C280.383179,283.957397 275.185913,283.957397 270.190125,283.957397 
	C270.190125,288.417419 270.190125,292.152435 270.190125,295.933685 
	C276.066833,295.933685 281.532562,295.933685 287.905914,296.107880 
	C291.601868,296.039459 295.297852,295.971039 299.916901,296.082092 
	C308.609863,296.036591 317.302856,295.991089 326.918335,296.120148 
	C332.610504,296.069672 338.302673,296.019165 344.919250,296.142365 
	C353.944885,296.085785 362.970551,296.029175 372.923492,296.124084 
	C379.280090,296.070526 385.636688,296.016998 392.921661,296.112030 
	C410.748718,296.105438 428.576172,296.039246 446.402527,296.146606 
	C449.663361,296.166229 451.189148,295.496674 451.176270,291.771851 
	C451.148865,283.852203 451.356567,283.851471 443.022797,283.843414 
	C442.689575,283.843109 442.346924,283.791260 442.024536,283.850281 
	C436.732422,284.818634 435.678314,282.304230 435.749512,277.436646 
	C435.971191,262.285217 435.701599,247.126602 435.758759,231.046326 
	C435.701996,221.690720 435.645233,212.335098 435.740631,202.056320 
	C435.690735,195.028091 435.640839,187.999847 435.745361,180.050735 
	C435.679016,173.692474 435.612671,167.334198 435.716156,160.056412 
	C435.758240,152.810196 435.653534,145.558777 435.909637,138.320129 
	C436.023010,135.116272 435.061035,132.918182 431.828918,131.034195 
	C429.252594,128.951782 426.676270,126.869370 423.769470,124.217857 
	C420.232727,121.344963 416.695984,118.472061 412.829987,115.046738 
	C407.204193,110.371155 401.578430,105.695572 395.876495,100.688850 
	C395.709076,100.815796 395.541687,100.942741 395.172913,101.978119 
	C395.252563,114.979065 395.332245,127.980011 395.223755,141.902725 
	C395.282440,148.263550 395.341125,154.624359 395.217529,161.906464 
	C395.202942,167.710495 395.078918,173.517807 395.252136,179.316238 
	C395.294434,180.733078 396.310852,182.120819 397.133240,184.103607 
	C401.769928,187.693588 406.406616,191.283585 411.360901,195.456680 
	C412.954590,196.976776 414.548309,198.496872 416.029022,200.945953 
	C416.074707,208.625870 416.120392,216.305786 416.033478,224.916489 
	C416.075714,233.937363 416.117950,242.958237 416.026947,252.910690 
	C416.015106,261.730804 415.865875,270.553955 416.059052,279.369537 
	C416.136322,282.896790 414.910004,284.036530 411.457855,283.886108 
	C406.980530,283.691010 402.482666,283.968018 397.066620,283.910309 
	C391.375519,283.961243 385.684448,284.012177 379.396698,283.447052 
	C379.217163,281.499359 378.907013,279.553436 378.880341,277.603638 
	C378.754303,268.389160 378.705811,259.173645 378.762268,249.035400 
	C378.718781,237.680954 378.675293,226.326492 378.775330,214.048584 
	C378.717621,206.360748 378.659912,198.672897 378.762512,190.062332 
M381.865997,316.999207 
	C408.611237,316.999207 435.356445,316.999207 462.625275,316.999207 
	C462.478729,314.057343 462.373474,311.944885 462.451752,309.044403 
	C462.812408,306.473328 462.639404,304.545380 459.128387,304.648407 
	C450.760925,304.893982 442.386414,304.900116 433.086334,304.849152 
	C426.290436,304.819641 419.494446,304.748840 412.698700,304.768860 
	C396.133820,304.817627 379.569122,304.908447 362.077606,304.827087 
	C327.425232,304.827087 292.772858,304.827087 258.166351,304.827087 
	C258.166351,307.666473 258.166351,309.818756 258.003387,312.806091 
	C257.738159,315.582611 258.561890,317.099030 261.789795,317.053558 
	C274.506470,316.874359 287.225739,316.883148 300.871399,317.020905 
	C327.558929,316.952789 354.246490,316.884674 381.865997,316.999207 
M496.381866,387.315491 
	C497.284210,382.341553 498.186584,377.367645 499.176392,371.911682 
	C491.391479,371.911682 484.286957,371.911682 476.844666,371.911682 
	C477.341614,368.557922 477.775055,365.632599 478.095001,363.473389 
	C476.753357,361.914093 475.917053,360.754425 474.894104,359.793396 
	C472.945709,357.962982 471.166443,355.419800 468.827515,354.639252 
	C462.210876,352.431213 455.727264,355.952484 453.224548,362.672211 
	C452.140167,365.583801 451.590363,368.694519 450.825500,371.608948 
	C448.907593,371.926025 447.250305,372.200043 445.592987,372.474060 
	C445.578949,372.777283 445.564941,373.080475 445.550903,373.383698 
	C446.980560,373.824585 448.410217,374.265442 450.470917,374.900940 
	C447.764313,390.565460 445.072296,406.145447 442.318695,422.081848 
	C444.721863,421.969910 446.336548,421.894684 448.103210,421.812408 
	C450.725677,406.977386 453.255493,392.397858 455.955414,377.849854 
	C456.198914,376.537811 457.437927,374.495270 458.389099,374.391571 
	C462.099274,373.987030 465.879669,374.226501 470.120605,374.226501 
	C469.848724,376.637146 469.723083,378.257141 469.475250,379.858185 
	C468.559509,385.774231 467.320007,391.656403 466.740723,397.603760 
	C466.139862,403.772491 468.430115,406.847748 473.281494,407.600342 
	C478.334991,408.384308 482.453033,405.274475 483.322479,399.104370 
	C481.953705,399.597076 481.066772,400.633911 480.013275,401.457703 
	C478.334747,402.770325 476.545288,403.941071 474.802734,405.171783 
	C473.869720,403.123413 471.944275,400.954590 472.175659,399.047485 
	C473.173615,390.822998 474.803741,382.675232 476.172607,374.681274 
	C481.824463,374.681274 487.022552,374.681274 492.566650,374.681274 
	C491.996643,379.141449 491.494446,383.070831 490.637604,387.724487 
	C490.203522,391.835846 489.163300,395.993805 489.475189,400.047760 
	C489.962067,406.376373 494.414642,409.251740 500.394989,407.097321 
	C503.791504,405.873688 506.676208,403.229340 509.771332,401.237762 
	C512.711060,407.234680 515.795837,409.063690 521.296387,407.026550 
	C523.987671,406.029785 526.752258,404.303314 528.612732,402.153503 
	C536.124512,393.473114 537.004883,382.665131 538.061523,371.314514 
	C535.501282,372.184998 533.550232,372.848358 531.807556,373.440887 
	C531.807556,377.390564 531.956177,380.722504 531.776123,384.036591 
	C531.418152,390.626953 530.207031,397.128723 525.325867,401.911133 
	C523.564758,403.636627 520.217957,404.805420 517.873535,404.439911 
	C516.644104,404.248230 515.744385,400.249146 515.217224,397.854645 
	C514.879456,396.320374 515.425781,394.565826 515.691650,392.928833 
	C516.800110,386.104248 517.952454,379.286804 519.117249,372.295471 
	C516.845215,372.295471 515.107483,372.295471 513.293030,372.295471 
	C512.112305,379.305756 511.631287,386.218628 509.618835,392.652466 
	C508.325256,396.788177 505.385651,400.920563 502.080994,403.779785 
	C498.370667,406.990021 494.971375,404.887970 495.001282,399.893158 
	C495.025024,395.926880 495.645905,391.964142 496.381866,387.315491 
M96.892113,369.172668 
	C95.266876,378.173706 93.638962,387.174225 92.017570,396.175964 
	C91.240303,400.491272 91.922897,405.790222 85.283478,406.481476 
	C91.206192,406.481476 97.128914,406.481476 103.051628,406.481476 
	C103.077400,406.173798 103.103180,405.866089 103.128952,405.558411 
	C101.164375,405.112946 99.199806,404.667450 96.865143,404.138062 
	C98.046898,397.552094 99.180191,391.236206 100.308647,384.947327 
	C104.475128,384.947327 108.222977,384.947327 111.993752,384.947327 
	C112.531059,387.485748 112.982010,389.616211 113.432961,391.746643 
	C113.877243,391.733337 114.321533,391.720032 114.765816,391.706757 
	C115.706161,386.319366 116.646507,380.931976 117.586853,375.544586 
	C116.978134,374.946075 116.369415,374.347534 115.760704,373.748993 
	C114.642166,385.160828 107.325050,381.843506 100.786537,381.976715 
	C102.014297,374.989014 103.181519,368.345856 104.435165,361.210785 
	C107.758553,361.210785 110.897316,361.412445 113.999969,361.163696 
	C118.699211,360.786926 121.960098,361.645020 121.240639,367.457916 
	C121.123589,368.403595 121.811241,369.448822 122.126953,370.448059 
	C122.560562,370.455444 122.994171,370.462830 123.427788,370.470215 
	C124.075455,366.774811 124.723129,363.079407 125.326546,359.636475 
	C114.181404,359.636475 103.668800,359.636475 93.156197,359.636475 
	C93.146507,359.951416 93.136818,360.266357 93.127129,360.581299 
	C94.635612,360.962158 96.144096,361.343048 98.014771,361.815399 
	C97.651299,364.127472 97.320564,366.231262 96.892113,369.172668 
M230.819855,384.897736 
	C232.024780,383.112244 233.046158,381.161530 234.473114,379.575836 
	C237.377716,376.348083 240.711945,372.393219 245.400574,374.783356 
	C249.804123,377.028168 247.990906,381.683167 247.253006,385.584167 
	C246.294846,390.649506 245.220474,395.712128 244.661377,400.826782 
	C244.305237,404.084686 245.679657,406.725708 249.531036,407.081024 
	C253.180801,407.417694 257.628143,404.567261 257.964844,401.507355 
	C258.042908,400.798126 257.416840,400.011444 257.180023,399.422668 
	C254.657303,401.967041 252.995850,403.642761 251.334381,405.318451 
	C250.913040,405.025421 250.491684,404.732391 250.070328,404.439362 
	C250.231186,402.497742 250.231155,400.526337 250.584000,398.620270 
	C251.521744,393.554504 252.691116,388.531372 253.616318,383.463562 
	C254.371750,379.325714 254.260590,374.588745 250.122269,372.939880 
	C246.852951,371.637329 242.540634,372.482483 238.794662,373.052185 
	C237.024017,373.321442 235.515320,375.211029 233.838135,376.288940 
	C233.527512,376.488586 232.978622,376.317444 232.359619,376.317444 
	C232.359619,374.914307 232.359619,373.632629 232.359619,372.492493 
	C228.708511,372.492493 225.246918,372.492493 221.785324,372.492493 
	C221.752136,372.784332 221.718964,373.076172 221.685776,373.368011 
	C223.113907,373.844696 224.542023,374.321381 226.461105,374.961945 
	C224.674088,385.519226 222.908707,395.948853 221.085617,406.719269 
	C223.093109,406.719269 224.835175,406.719269 226.857834,406.719269 
	C228.085297,399.672760 229.307465,392.656586 230.819855,384.897736 
M338.173950,397.100525 
	C339.622375,388.848938 341.070801,380.597351 342.519226,372.345764 
	C342.140686,372.108582 341.762146,371.871368 341.383606,371.634186 
	C339.763184,372.826965 338.142792,374.019775 336.519714,375.216675 
	C328.454926,369.327850 319.203613,370.477539 314.876282,378.647430 
	C312.626251,382.895477 311.558563,387.960602 310.855316,392.787537 
	C310.020752,398.515747 311.490326,403.915344 317.268036,406.702301 
	C322.818512,409.379639 327.194183,406.831329 330.978638,402.745819 
	C331.139191,402.572449 331.553101,402.633820 331.848969,402.585815 
	C331.685791,403.012543 331.522614,403.439270 331.359467,403.865997 
	C333.809387,404.932465 336.389587,407.054291 338.673096,406.772400 
	C341.015106,406.483276 343.102997,403.886078 345.172241,402.144745 
	C345.325714,402.015594 344.432495,400.642639 344.062195,399.918945 
	C342.204132,401.938721 340.760742,403.507751 339.317322,405.076813 
	C338.901123,404.906281 338.484894,404.735748 338.068695,404.565247 
	C338.068695,402.375824 338.068695,400.186432 338.173950,397.100525 
M541.880432,397.627075 
	C542.745239,401.928741 544.654114,405.437958 549.039062,407.073364 
	C554.787659,409.217377 558.780396,405.881531 561.390503,403.492249 
	C564.783325,404.963318 567.352722,407.070343 569.625488,406.788116 
	C571.974976,406.496368 574.083008,403.939514 576.150818,402.200195 
	C576.356323,402.027344 575.548218,400.649445 575.166687,399.724579 
	C573.437195,402.123260 572.112305,403.960724 570.787476,405.798187 
	C569.958557,405.279236 569.129639,404.760284 568.300720,404.241333 
	C569.993469,393.588776 571.686218,382.936218 573.599243,370.897491 
	C570.797302,372.831879 569.144043,373.973236 567.499939,375.108276 
	C559.530579,369.736969 551.440308,370.554443 546.479370,377.375854 
	C542.261169,383.175964 541.269592,389.840637 541.880432,397.627075 
M168.034271,371.314697 
	C163.242264,372.877930 158.450256,374.441162 153.799622,375.958282 
	C153.799622,375.191956 153.799622,373.760193 153.799622,372.658295 
	C150.081985,372.658295 146.573792,372.658295 143.065598,372.658295 
	C143.078079,372.956055 143.090561,373.253815 143.103043,373.551575 
	C144.595551,374.017273 146.088074,374.482971 147.918945,375.054230 
	C146.113708,385.740814 144.355820,396.147186 142.513275,407.054596 
	C144.874283,406.946381 146.586502,406.867920 148.377274,406.785828 
	C149.400192,400.761475 149.819046,395.031982 151.458176,389.675934 
	C152.764114,385.408600 154.927277,381.009552 157.918350,377.792603 
	C159.863083,375.701080 163.976532,375.626007 167.118347,374.647522 
	C167.804840,377.541016 168.681061,380.407715 169.095337,383.339661 
	C169.293304,384.740814 168.606934,386.264343 168.334702,387.734985 
	C167.548141,391.984039 166.545441,396.209015 166.058716,400.492401 
	C165.688782,403.748108 166.891479,406.460785 170.650146,407.054352 
	C174.192642,407.613800 178.790878,404.938904 179.364609,401.834564 
	C179.467209,401.279419 178.361069,400.500916 177.974701,400.024750 
	C176.187103,401.929779 174.626648,403.592743 173.066193,405.255707 
	C172.545441,405.022980 172.024704,404.790222 171.503952,404.557495 
	C171.808655,401.883820 172.016464,399.194733 172.438339,396.539673 
	C173.298584,391.125763 174.559601,385.759216 175.113052,380.317993 
	C175.566422,375.860779 173.469055,372.601868 168.034271,371.314697 
M184.314682,402.033478 
	C190.010544,409.635986 194.894485,409.763672 202.376526,403.506805 
	C205.852707,404.871613 208.641769,406.880249 211.297501,406.717224 
	C213.381958,406.589264 215.345901,403.823792 217.215408,402.072113 
	C217.375336,401.922272 216.420547,400.582703 216.032669,399.884155 
	C214.177292,401.897400 212.730576,403.467224 211.283844,405.037079 
	C210.641998,404.810760 210.000153,404.584442 209.358307,404.358154 
	C211.010681,393.647125 212.663055,382.936127 214.552673,370.687256 
	C211.628998,372.861786 210.017502,374.060364 208.447250,375.228271 
	C201.136765,369.676727 192.699051,370.258362 187.701416,377.146423 
	C182.416306,384.430695 181.241364,392.670837 184.314682,402.033478 
M410.123657,383.766754 
	C409.606323,387.033112 408.707092,390.291962 408.642853,393.567230 
	C408.445648,403.619263 416.010193,409.539551 425.805695,407.273712 
	C435.005951,405.145538 441.246674,393.777008 439.326355,382.643524 
	C437.898010,374.362457 431.829132,370.114319 423.535675,371.459930 
	C416.687836,372.570984 412.886169,377.034607 410.123657,383.766754 
M631.302124,402.916077 
	C631.564758,401.684631 631.827393,400.453156 632.089966,399.221680 
	C630.996399,399.773956 629.604675,400.067566 628.861694,400.923981 
	C625.886719,404.353119 622.287537,406.214752 617.850342,404.915436 
	C613.343750,403.595764 612.805054,399.663757 612.876282,395.649139 
	C612.895996,394.539398 613.053284,393.432098 613.084839,393.061188 
	C619.070496,391.482361 624.585815,390.390411 629.830322,388.533722 
	C634.323730,386.942932 636.672119,383.287537 635.997375,378.336029 
	C635.484314,374.570770 631.181396,371.332153 626.282104,371.242859 
	C618.856750,371.107513 612.871155,374.241486 609.690857,381.000946 
	C606.289001,388.231506 604.473755,395.942596 609.901794,403.116180 
	C614.541443,409.247894 623.041382,409.207489 631.302124,402.916077 
M395.775085,374.385681 
	C397.261658,377.136383 398.748260,379.887054 400.597900,383.309540 
	C401.083771,383.048035 403.925842,382.295563 404.005188,381.318695 
	C404.187561,379.072815 403.685974,376.081085 402.234558,374.574615 
	C400.570404,372.847412 397.663391,371.948669 395.149078,371.480164 
	C388.166992,370.179199 382.049744,373.933960 380.744019,379.905914 
	C379.469604,385.734589 382.285736,389.507080 389.730896,392.003357 
	C391.145416,392.477661 392.947449,392.691345 393.821136,393.684601 
	C395.328674,395.398499 397.332123,397.758514 397.112152,399.607635 
	C396.888519,401.487640 394.542145,403.885620 392.579590,404.643494 
	C386.742645,406.897461 382.903809,404.573334 379.279449,397.005432 
	C378.282196,397.855286 376.899811,399.338806 377.203369,400.276947 
	C377.828339,402.208588 379.000336,404.308868 380.576843,405.520782 
	C384.940369,408.875183 393.468689,408.584839 398.118713,405.348755 
	C404.821594,400.683899 404.251953,392.053772 396.908173,388.450287 
	C394.382568,387.211060 391.274475,386.886902 389.125061,385.240540 
	C387.455872,383.962006 385.834808,381.143951 386.082397,379.258240 
	C386.326141,377.401581 388.741638,375.547363 390.609619,374.298279 
	C391.643799,373.606689 393.508453,374.157074 395.775085,374.385681 
M268.123749,387.061066 
	C269.839661,383.386292 270.936737,379.165741 273.510498,376.247559 
	C274.983643,374.577301 279.163574,374.088776 281.539062,374.863739 
	C283.008087,375.343079 283.517151,379.156494 284.172241,381.551147 
	C284.444672,382.546967 283.974945,383.745819 283.837860,384.892822 
	C289.281860,384.879608 290.979095,382.616669 289.390533,377.990814 
	C287.818970,373.414459 282.735260,370.647003 277.287567,371.402252 
	C266.947632,372.835724 260.291290,382.590942 261.004486,395.265900 
	C261.373688,401.826813 265.097229,406.166534 271.392822,407.373291 
	C277.620544,408.567047 283.192017,405.741364 285.543396,399.355408 
	C284.025940,399.647827 282.727661,400.333313 281.774750,401.344391 
	C278.962738,404.327972 275.667206,406.264343 271.597168,404.899658 
	C267.660065,403.579620 266.999908,399.915527 267.091736,396.299347 
	C267.163055,393.491791 267.688416,390.695801 268.123749,387.061066 
M359.052643,377.792664 
	C360.366241,370.305328 361.679840,362.817993 362.988159,355.360657 
	C359.015503,355.360657 355.451965,355.360657 351.888458,355.360657 
	C351.849609,355.698151 351.810760,356.035645 351.771912,356.373108 
	C353.227539,356.753296 354.683136,357.133484 356.577301,357.628204 
	C355.876801,362.038666 355.217590,366.271271 354.530426,370.499359 
	C352.932892,380.329407 351.211609,390.141266 349.780823,399.995361 
	C349.326111,403.127075 350.204773,406.219666 353.902039,406.940918 
	C358.024475,407.745117 360.987152,405.715332 362.790070,402.089935 
	C363.009674,401.648315 362.120758,400.655518 361.577728,399.588226 
	C360.083405,402.005341 358.857788,403.987793 357.632172,405.970245 
	C356.632080,405.389404 355.632019,404.808563 354.631927,404.227722 
	C356.082520,395.704895 357.533112,387.182098 359.052643,377.792664 
M597.800964,375.616730 
	C599.924988,376.593475 602.049011,377.570221 604.997131,378.925934 
	C605.446350,378.592377 606.835205,377.561157 608.391052,376.405914 
	C602.630310,366.736786 597.005371,373.669769 591.226746,376.197418 
	C591.147156,374.562408 591.088318,373.351837 591.053223,372.630768 
	C587.395264,372.630768 584.014465,372.630768 580.633606,372.630768 
	C580.647644,372.921539 580.661621,373.212311 580.675659,373.503082 
	C582.150818,373.957245 583.625977,374.411438 585.528992,374.997314 
	C583.695435,385.649292 581.904053,396.056580 580.059082,406.775391 
	C582.210266,406.775391 583.954224,406.775391 585.840942,406.775391 
	C586.977234,400.369263 588.024170,394.151428 589.196228,387.957275 
	C590.155334,382.888550 592.215393,378.466736 597.800964,375.616730 
M137.987564,403.681854 
	C138.089081,402.531067 138.190613,401.380310 138.405548,398.943909 
	C135.772614,401.870331 134.319199,403.485748 132.865784,405.101196 
	C132.314804,404.909454 131.763840,404.717743 131.212860,404.526031 
	C131.359116,393.685242 134.815598,383.164062 135.797180,372.532104 
	C131.901947,372.532104 128.358887,372.532104 124.815826,372.532104 
	C124.792107,372.836823 124.768379,373.141541 124.744659,373.446259 
	C126.190392,373.890625 127.636131,374.334991 129.494385,374.906158 
	C128.242340,382.743988 126.678459,390.368927 125.980301,398.072327 
	C125.734138,400.788391 126.783798,404.685242 128.705246,406.282196 
	C131.504120,408.608429 134.963943,406.764832 137.987564,403.681854 
M294.391937,396.828217 
	C294.270203,397.982819 294.021423,399.140717 294.051086,400.291412 
	C294.133362,403.484467 295.002045,406.377228 298.639862,406.982574 
	C302.558105,407.634583 305.396973,405.686676 307.164337,402.309937 
	C307.431732,401.798950 306.550995,400.687012 306.201355,399.853149 
	C304.252563,401.906281 302.730316,403.510010 301.208069,405.113770 
	C300.585541,404.827454 299.962982,404.541138 299.340424,404.254822 
	C301.009583,393.618561 302.678741,382.982330 304.311768,372.576355 
	C300.339386,372.576355 296.778503,372.576355 293.217621,372.576355 
	C293.203430,372.882568 293.189240,373.188782 293.175079,373.494995 
	C294.677734,373.902618 296.180389,374.310272 298.085388,374.827057 
	C296.913849,381.966797 295.764252,388.972931 294.391937,396.828217 
M133.491074,357.052887 
	C133.046600,359.049866 132.602127,361.046844 132.157654,363.043823 
	C133.693451,363.242798 135.704971,364.125336 136.646347,363.470154 
	C137.861954,362.624207 138.222046,360.548950 138.950562,359.003052 
	C137.358383,358.273987 135.766220,357.544922 133.491074,357.052887 
M300.951019,357.861206 
	C299.483643,360.677979 298.627319,363.486542 303.124573,363.862030 
	C304.380707,363.966858 306.136810,362.672028 306.983185,361.519592 
	C307.570160,360.720306 307.314697,358.110046 306.877258,357.962341 
	C305.209442,357.399048 303.315063,357.506470 300.951019,357.861206 
z"/>
<path fill="#61B19B" opacity="1.000000" stroke="none" 
	d="
M397.993622,284.041809 
	C402.482666,283.968018 406.980530,283.691010 411.457855,283.886108 
	C414.910004,284.036530 416.136322,282.896790 416.059052,279.369537 
	C415.865875,270.553955 416.015106,261.730804 416.419495,252.366623 
	C418.052460,250.776993 419.507996,249.901886 420.495331,248.655762 
	C424.338837,243.804718 427.951599,238.769241 431.850281,233.964722 
	C432.674713,232.948746 434.343018,232.617508 435.622528,231.970764 
	C435.701599,247.126602 435.971191,262.285217 435.749512,277.436646 
	C435.678314,282.304230 436.732422,284.818634 442.024536,283.850281 
	C442.346924,283.791260 442.689575,283.843109 443.022797,283.843414 
	C451.356567,283.851471 451.148865,283.852203 451.176270,291.771851 
	C451.189148,295.496674 449.663361,296.166229 446.402527,296.146606 
	C428.576172,296.039246 410.748718,296.105438 392.466675,295.662994 
	C392.804016,293.714478 393.588959,292.211029 394.390472,290.716461 
	C395.585388,288.488312 396.791992,286.266388 397.993622,284.041809 
z"/>
<path fill="#CFEAC3" opacity="1.000000" stroke="none" 
	d="
M286.384491,192.980301 
	C286.480164,180.190918 286.575806,167.401535 287.166931,154.271408 
	C287.866608,153.775864 287.983490,153.571182 288.013123,153.316650 
	C300.727600,142.604706 313.442047,131.892746 326.960663,120.503326 
	C326.960663,123.709785 326.960663,125.931374 326.518402,128.589279 
	C325.079620,130.060379 324.083069,131.095154 323.086548,132.129944 
	C324.334869,133.088745 325.583221,134.047546 326.831543,135.006348 
	C326.877441,137.705093 326.923340,140.403854 326.536499,143.606079 
	C325.203430,146.053345 324.772705,149.141129 323.319458,149.737549 
	C317.814850,151.996735 316.167023,157.211395 313.104156,161.359970 
	C307.741028,168.624222 302.525299,176.013809 296.823517,183.004883 
	C293.804901,186.706039 289.893066,189.678726 286.384491,192.980301 
M314.185303,144.220596 
	C313.911011,143.947876 313.636688,143.675140 313.362396,143.402420 
	C313.177368,143.612350 312.992340,143.822281 312.807312,144.032211 
	C313.169342,144.197540 313.531372,144.362854 314.185303,144.220596 
z"/>
<path fill="#A5D5B4" opacity="1.000000" stroke="none" 
	d="
M326.833130,216.989288 
	C326.877625,224.015060 326.922150,231.040848 326.574738,238.622772 
	C325.148834,240.404816 323.984802,241.544220 323.102661,242.871033 
	C318.467651,249.842438 313.930756,256.879059 309.303101,263.855408 
	C307.253052,266.945984 305.082336,269.957092 302.942810,272.987579 
	C301.160889,275.511505 299.308044,277.985901 297.550842,280.526672 
	C294.010193,285.646301 290.513275,290.796234 286.998291,295.933685 
	C281.532562,295.933685 276.066833,295.933685 270.190125,295.933685 
	C270.190125,292.152435 270.190125,288.417419 270.190125,283.957397 
	C275.185913,283.957397 280.383179,283.957397 286.203918,283.957397 
	C286.203918,277.477173 286.203918,271.705536 286.703094,265.497253 
	C290.675568,261.551941 294.607880,258.385742 297.531433,254.466934 
	C304.717468,244.834412 311.291107,234.746063 318.433899,225.079620 
	C320.711639,221.997131 324.004669,219.664841 326.833130,216.989288 
z"/>
<path fill="#BBE1BD" opacity="1.000000" stroke="none" 
	d="
M326.830994,162.991425 
	C326.871429,174.014297 326.911804,185.037155 326.536194,196.552094 
	C323.768494,199.019119 320.969604,200.651825 319.147614,203.032242 
	C313.324646,210.639816 307.870728,218.529556 302.261047,226.300812 
	C298.993530,230.827393 295.809692,235.420914 292.373871,239.816803 
	C290.620361,242.060272 288.394409,243.934464 286.381989,245.975571 
	C286.318695,236.951782 286.255432,227.927979 286.631348,218.410004 
	C293.617310,216.284988 295.380096,209.687439 299.280182,205.475708 
	C304.971771,199.329300 309.174408,191.768631 313.774933,184.657623 
	C318.196686,177.822983 325.407257,172.572800 326.017731,163.514755 
	C326.030670,163.322906 326.548645,163.165100 326.830994,162.991425 
z"/>
<path fill="#D2EDC5" opacity="1.000000" stroke="none" 
	d="
M378.781097,49.070923 
	C378.780365,56.393703 378.779602,63.716488 378.336792,71.506134 
	C376.819214,72.329002 375.495178,72.403847 374.714783,73.093681 
	C372.364746,75.170952 369.445221,77.122581 368.194366,79.799210 
	C366.457611,83.515648 359.464966,84.921326 362.660370,91.133774 
	C358.129822,90.966805 355.289642,93.068047 352.384186,95.947762 
	C350.417816,97.896683 347.490265,98.749237 348.369690,102.382622 
	C348.430573,102.634239 347.599396,103.157784 347.128296,103.473015 
	C344.228180,105.413528 341.312317,107.330528 338.401703,109.255341 
	C338.318237,100.792213 338.090912,92.325943 338.276001,83.868706 
	C338.311859,82.230576 339.598389,80.209846 340.917847,79.073952 
	C352.615234,69.003937 364.450073,59.093571 376.874329,49.021122 
	C377.929932,48.961086 378.355499,49.016003 378.781097,49.070923 
z"/>
<path fill="#C7E7C1" opacity="1.000000" stroke="none" 
	d="
M326.897308,162.527802 
	C326.548645,163.165100 326.030670,163.322906 326.017731,163.514755 
	C325.407257,172.572800 318.196686,177.822983 313.774933,184.657623 
	C309.174408,191.768631 304.971771,199.329300 299.280182,205.475708 
	C295.380096,209.687439 293.617310,216.284988 286.726562,217.949036 
	C286.320557,209.956039 286.258484,201.929871 286.290436,193.441986 
	C289.893066,189.678726 293.804901,186.706039 296.823517,183.004883 
	C302.525299,176.013809 307.741028,168.624222 313.104156,161.359970 
	C316.167023,157.211395 317.814850,151.996735 323.319458,149.737549 
	C324.772705,149.141129 325.203430,146.053345 326.468048,144.051239 
	C326.876129,150.016678 326.919861,156.040421 326.897308,162.527802 
z"/>
<path fill="#CDEBE4" opacity="1.000000" stroke="none" 
	d="
M490.992249,387.000214 
	C491.494446,383.070831 491.996643,379.141449 492.566650,374.681274 
	C487.022552,374.681274 481.824463,374.681274 476.172607,374.681274 
	C474.803741,382.675232 473.173615,390.822998 472.175659,399.047485 
	C471.944275,400.954590 473.869720,403.123413 474.802734,405.171783 
	C476.545288,403.941071 478.334747,402.770325 480.013275,401.457703 
	C481.066772,400.633911 481.953705,399.597076 483.322479,399.104370 
	C482.453033,405.274475 478.334991,408.384308 473.281494,407.600342 
	C468.430115,406.847748 466.139862,403.772491 466.740723,397.603760 
	C467.320007,391.656403 468.559509,385.774231 469.475250,379.858185 
	C469.723083,378.257141 469.848724,376.637146 470.120605,374.226501 
	C465.879669,374.226501 462.099274,373.987030 458.389099,374.391571 
	C457.437927,374.495270 456.198914,376.537811 455.955414,377.849854 
	C453.255493,392.397858 450.725677,406.977386 448.103210,421.812408 
	C446.336548,421.894684 444.721863,421.969910 442.318695,422.081848 
	C445.072296,406.145447 447.764313,390.565460 450.470917,374.900940 
	C448.410217,374.265442 446.980560,373.824585 445.550903,373.383698 
	C445.564941,373.080475 445.578949,372.777283 445.592987,372.474060 
	C447.250305,372.200043 448.907593,371.926025 450.825500,371.608948 
	C451.590363,368.694519 452.140167,365.583801 453.224548,362.672211 
	C455.727264,355.952484 462.210876,352.431213 468.827515,354.639252 
	C471.166443,355.419800 472.945709,357.962982 474.894104,359.793396 
	C475.917053,360.754425 476.753357,361.914093 478.095001,363.473389 
	C477.775055,365.632599 477.341614,368.557922 476.844666,371.911682 
	C484.286957,371.911682 491.391479,371.911682 499.176392,371.911682 
	C498.186584,377.367645 497.284210,382.341553 495.919434,387.730164 
	C493.968781,387.763306 492.480499,387.381775 490.992249,387.000214 
M471.640625,366.829071 
	C470.955414,365.515778 470.195923,364.235046 469.602203,362.881622 
	C468.686768,360.794922 467.884888,358.658386 467.034851,356.542999 
	C464.663116,357.641449 461.192596,358.124420 460.157776,359.971771 
	C458.244110,363.388000 457.756927,367.603302 456.603729,371.743530 
	C461.899628,371.743530 466.321686,371.743530 470.720123,371.743530 
	C471.061707,370.203644 471.348969,368.908783 471.640625,366.829071 
z"/>
<path fill="#BBE1BD" opacity="1.000000" stroke="none" 
	d="
M343.985107,159.036926 
	C336.197510,155.814331 338.394073,148.989243 338.666748,142.490692 
	C345.775970,134.782867 352.311890,127.558525 357.105011,118.891510 
	C359.915100,113.810295 362.975006,108.755547 366.666077,104.305641 
	C370.144897,100.111626 374.598358,96.726036 378.622986,92.984802 
	C378.674316,101.010727 378.725616,109.036659 378.355438,117.555428 
	C372.173798,124.939957 365.771362,131.405334 360.834290,138.843369 
	C355.909943,146.262314 351.024658,153.482956 343.985107,159.036926 
z"/>
<path fill="#C7E7C1" opacity="1.000000" stroke="none" 
	d="
M378.705505,92.529114 
	C374.598358,96.726036 370.144897,100.111626 366.666077,104.305641 
	C362.975006,108.755547 359.915100,113.810295 357.105011,118.891510 
	C352.311890,127.558525 345.775970,134.782867 338.762695,142.061737 
	C338.350220,132.747070 338.301178,123.327965 338.676636,113.471161 
	C340.401306,113.218742 341.701508,113.404007 343.001678,113.589264 
	C343.096680,113.138603 343.191650,112.687935 343.286621,112.237274 
	C341.661438,111.770065 340.036224,111.302864 338.411011,110.835655 
	C338.346222,110.481148 338.281433,110.126640 338.309174,109.513733 
	C341.312317,107.330528 344.228180,105.413528 347.128296,103.473015 
	C347.599396,103.157784 348.430573,102.634239 348.369690,102.382622 
	C347.490265,98.749237 350.417816,97.896683 352.384186,95.947762 
	C355.289642,93.068047 358.129822,90.966805 362.899902,91.334900 
	C364.475006,91.651695 366.031189,92.456741 366.415894,92.076500 
	C369.468018,89.060089 373.784180,86.210899 374.756256,82.529793 
	C375.640533,79.181030 377.170013,80.507263 378.605591,80.020172 
	C378.666412,84.037918 378.727203,88.055672 378.705505,92.529114 
z"/>
<path fill="#8AC6AA" opacity="1.000000" stroke="none" 
	d="
M411.043304,194.873566 
	C406.406616,191.283585 401.769928,187.693588 397.051819,183.425537 
	C400.522064,178.117203 404.078064,173.490265 407.623779,168.855453 
	C409.728149,166.104736 411.558929,163.090652 413.958588,160.629700 
	C422.143707,152.235367 428.572540,142.803467 432.180542,131.569427 
	C435.061035,132.918182 436.023010,135.116272 435.909637,138.320129 
	C435.653534,145.558777 435.758240,152.810196 435.293427,160.549316 
	C433.421814,162.036163 431.396210,162.702423 430.615723,164.076141 
	C424.596802,174.669586 414.727783,182.816513 411.043304,194.873566 
z"/>
<path fill="#BCE2BD" opacity="1.000000" stroke="none" 
	d="
M363.004333,304.982361 
	C379.569122,304.908447 396.133820,304.817627 412.698700,304.768860 
	C419.494446,304.748840 426.290436,304.819641 433.386230,305.276520 
	C432.663757,306.132721 431.663696,306.868683 430.615662,306.944916 
	C411.587830,308.328766 392.566223,309.852386 373.518738,310.898132 
	C350.481018,312.162872 327.417816,312.959930 304.375275,314.146729 
	C302.856323,314.224945 301.419250,315.893372 299.944061,316.822174 
	C287.225739,316.883148 274.506470,316.874359 261.789795,317.053558 
	C258.561890,317.099030 257.738159,315.582611 258.512451,312.397522 
	C268.777100,311.347015 278.525757,310.559845 288.289673,310.092102 
	C311.649048,308.973022 335.017273,308.038666 358.375488,306.898254 
	C359.945892,306.821594 361.462646,305.646545 363.004333,304.982361 
z"/>
<path fill="#B0DCB9" opacity="1.000000" stroke="none" 
	d="
M286.288940,246.437042 
	C288.394409,243.934464 290.620361,242.060272 292.373871,239.816803 
	C295.809692,235.420914 298.993530,230.827393 302.261047,226.300812 
	C307.870728,218.529556 313.324646,210.639816 319.147614,203.032242 
	C320.969604,200.651825 323.768494,199.019119 326.469513,197.015732 
	C326.866028,203.345367 326.913239,209.703430 326.896790,216.525391 
	C324.004669,219.664841 320.711639,221.997131 318.433899,225.079620 
	C311.291107,234.746063 304.717468,244.834412 297.531433,254.466934 
	C294.607880,258.385742 290.675568,261.551941 286.796814,265.105591 
	C286.326172,259.066559 286.261047,252.982544 286.288940,246.437042 
z"/>
<path fill="#74B99F" opacity="1.000000" stroke="none" 
	d="
M378.629700,249.958527 
	C378.705811,259.173645 378.754303,268.389160 378.880341,277.603638 
	C378.907013,279.553436 379.217163,281.499359 379.671448,284.111267 
	C379.175140,286.148682 378.531860,287.615814 377.605835,288.875061 
	C375.820404,291.302979 373.875153,293.613434 371.996185,295.972595 
	C362.970551,296.029175 353.944885,296.085785 344.487793,295.693909 
	C345.704926,291.500092 347.353516,287.754700 349.002136,284.009338 
	C352.121063,283.904236 355.244843,283.642303 358.357544,283.738800 
	C361.373077,283.832306 362.391815,282.565247 362.359772,279.641724 
	C362.280334,272.398041 362.415192,265.151978 362.840454,257.661530 
	C365.284424,263.190430 365.630005,263.280212 369.921661,258.572021 
	C371.338989,257.017120 372.332916,255.062103 373.812836,253.582520 
	C375.219818,252.175827 377.008728,251.151154 378.629700,249.958527 
z"/>
<path fill="#92CCAE" opacity="1.000000" stroke="none" 
	d="
M300.407715,316.921539 
	C301.419250,315.893372 302.856323,314.224945 304.375275,314.146729 
	C327.417816,312.959930 350.481018,312.162872 373.518738,310.898132 
	C392.566223,309.852386 411.587830,308.328766 430.615662,306.944916 
	C431.663696,306.868683 432.663757,306.132721 433.850464,305.353424 
	C442.386414,304.900116 450.760925,304.893982 459.128387,304.648407 
	C462.639404,304.545380 462.812408,306.473328 461.986389,309.492737 
	C450.832611,310.843597 440.154755,311.908447 429.453094,312.608856 
	C415.049072,313.551636 400.623322,314.160278 386.216370,315.063324 
	C384.425995,315.175507 382.693390,316.209656 380.934021,316.816559 
	C354.246490,316.884674 327.558929,316.952789 300.407715,316.921539 
z"/>
<path fill="#96CEB0" opacity="1.000000" stroke="none" 
	d="
M432.004730,131.301819 
	C428.572540,142.803467 422.143707,152.235367 413.958588,160.629700 
	C411.558929,163.090652 409.728149,166.104736 407.623779,168.855453 
	C404.078064,173.490265 400.522064,178.117203 396.924896,183.134705 
	C396.310852,182.120819 395.294434,180.733078 395.252136,179.316238 
	C395.078918,173.517807 395.202942,167.710495 395.660767,161.435303 
	C397.754211,159.782349 399.851990,158.925156 400.982697,157.366440 
	C408.801178,146.588409 416.418213,135.664215 424.099945,124.786964 
	C426.676270,126.869370 429.252594,128.951782 432.004730,131.301819 
z"/>
<path fill="#A0D3B3" opacity="1.000000" stroke="none" 
	d="
M287.452087,296.020782 
	C290.513275,290.796234 294.010193,285.646301 297.550842,280.526672 
	C299.308044,277.985901 301.160889,275.511505 302.942810,272.987579 
	C305.082336,269.957092 307.253052,266.945984 309.303101,263.855408 
	C313.930756,256.879059 318.467651,249.842438 323.102661,242.871033 
	C323.984802,241.544220 325.148834,240.404816 326.508850,239.086929 
	C326.872131,247.349533 326.909393,255.704117 326.528625,264.550659 
	C319.560028,269.619049 314.994019,275.725616 312.026215,283.177368 
	C304.403839,284.549652 299.143829,289.647888 298.993805,295.902618 
	C295.297852,295.971039 291.601868,296.039459 287.452087,296.020782 
z"/>
<path fill="#B5DEBB" opacity="1.000000" stroke="none" 
	d="
M344.144012,159.330307 
	C351.024658,153.482956 355.909943,146.262314 360.834290,138.843369 
	C365.771362,131.405334 372.173798,124.939957 378.268616,118.015579 
	C378.656799,124.672630 378.710327,131.362381 378.344604,138.542603 
	C376.439148,140.033401 374.623962,140.758636 373.520294,142.078720 
	C366.463684,150.518784 359.170471,158.856308 356.801544,170.104828 
	C352.635345,166.611115 348.469147,163.117401 344.144012,159.330307 
z"/>
<path fill="#87C5A9" opacity="1.000000" stroke="none" 
	d="
M378.695984,249.496964 
	C377.008728,251.151154 375.219818,252.175827 373.812836,253.582520 
	C372.332916,255.062103 371.338989,257.017120 369.921661,258.572021 
	C365.630005,263.280212 365.284424,263.190430 362.975525,257.212891 
	C362.666168,247.298691 362.598145,237.587753 363.000610,227.415894 
	C363.962372,226.883942 364.636627,226.995178 364.916870,226.713898 
	C367.898834,223.720871 370.709015,220.547455 373.806305,217.683029 
	C375.123749,216.464645 377.006165,215.857162 378.631805,214.972046 
	C378.675293,226.326492 378.718781,237.680954 378.695984,249.496964 
z"/>
<path fill="#C8E8E0" opacity="1.000000" stroke="none" 
	d="
M490.814941,387.362366 
	C492.480499,387.381775 493.968781,387.763306 495.729340,388.072357 
	C495.645905,391.964142 495.025024,395.926880 495.001282,399.893158 
	C494.971375,404.887970 498.370667,406.990021 502.080994,403.779785 
	C505.385651,400.920563 508.325256,396.788177 509.618835,392.652466 
	C511.631287,386.218628 512.112305,379.305756 513.293030,372.295471 
	C515.107483,372.295471 516.845215,372.295471 519.117249,372.295471 
	C517.952454,379.286804 516.800110,386.104248 515.691650,392.928833 
	C515.425781,394.565826 514.879456,396.320374 515.217224,397.854645 
	C515.744385,400.249146 516.644104,404.248230 517.873535,404.439911 
	C520.217957,404.805420 523.564758,403.636627 525.325867,401.911133 
	C530.207031,397.128723 531.418152,390.626953 531.776123,384.036591 
	C531.956177,380.722504 531.807556,377.390564 531.807556,373.440887 
	C533.550232,372.848358 535.501282,372.184998 538.061523,371.314514 
	C537.004883,382.665131 536.124512,393.473114 528.612732,402.153503 
	C526.752258,404.303314 523.987671,406.029785 521.296387,407.026550 
	C515.795837,409.063690 512.711060,407.234680 509.771332,401.237762 
	C506.676208,403.229340 503.791504,405.873688 500.394989,407.097321 
	C494.414642,409.251740 489.962067,406.376373 489.475189,400.047760 
	C489.163300,395.993805 490.203522,391.835846 490.814941,387.362366 
z"/>
<path fill="#6EB9A2" opacity="1.000000" stroke="none" 
	d="
M435.690643,231.508545 
	C434.343018,232.617508 432.674713,232.948746 431.850281,233.964722 
	C427.951599,238.769241 424.338837,243.804718 420.495331,248.655762 
	C419.507996,249.901886 418.052460,250.776993 416.486084,251.900833 
	C416.117950,242.958237 416.075714,233.937363 416.423706,224.370804 
	C417.950470,222.921692 419.350128,222.210938 420.177399,221.081085 
	C423.555145,216.467941 426.596741,211.601074 430.106598,207.096024 
	C431.462097,205.356247 433.734070,204.330536 435.588501,202.979492 
	C435.645233,212.335098 435.701996,221.690720 435.690643,231.508545 
z"/>
<path fill="#CAEAE2" opacity="1.000000" stroke="none" 
	d="
M96.940979,368.753845 
	C97.320564,366.231262 97.651299,364.127472 98.014771,361.815399 
	C96.144096,361.343048 94.635612,360.962158 93.127129,360.581299 
	C93.136818,360.266357 93.146507,359.951416 93.156197,359.636475 
	C103.668800,359.636475 114.181404,359.636475 125.326546,359.636475 
	C124.723129,363.079407 124.075455,366.774811 123.427788,370.470215 
	C122.994171,370.462830 122.560562,370.455444 122.126953,370.448059 
	C121.811241,369.448822 121.123589,368.403595 121.240639,367.457916 
	C121.960098,361.645020 118.699211,360.786926 113.999969,361.163696 
	C110.897316,361.412445 107.758553,361.210785 104.435165,361.210785 
	C103.181519,368.345856 102.014297,374.989014 100.786537,381.976715 
	C107.325050,381.843506 114.642166,385.160828 115.760704,373.748993 
	C116.369415,374.347534 116.978134,374.946075 117.586853,375.544586 
	C116.646507,380.931976 115.706161,386.319366 114.765816,391.706757 
	C114.321533,391.720032 113.877243,391.733337 113.432961,391.746643 
	C112.982010,389.616211 112.531059,387.485748 111.993752,384.947327 
	C108.222977,384.947327 104.475128,384.947327 100.308647,384.947327 
	C99.180191,391.236206 98.046898,397.552094 96.865143,404.138062 
	C99.199806,404.667450 101.164375,405.112946 103.128952,405.558411 
	C103.103180,405.866089 103.077400,406.173798 103.051628,406.481476 
	C97.128914,406.481476 91.206192,406.481476 85.283478,406.481476 
	C91.922897,405.790222 91.240303,400.491272 92.017570,396.175964 
	C93.638962,387.174225 95.266876,378.173706 96.940979,368.753845 
z"/>
<path fill="#CCEAE3" opacity="1.000000" stroke="none" 
	d="
M230.674744,385.269073 
	C229.307465,392.656586 228.085297,399.672760 226.857834,406.719269 
	C224.835175,406.719269 223.093109,406.719269 221.085617,406.719269 
	C222.908707,395.948853 224.674088,385.519226 226.461105,374.961945 
	C224.542023,374.321381 223.113907,373.844696 221.685776,373.368011 
	C221.718964,373.076172 221.752136,372.784332 221.785324,372.492493 
	C225.246918,372.492493 228.708511,372.492493 232.359619,372.492493 
	C232.359619,373.632629 232.359619,374.914307 232.359619,376.317444 
	C232.978622,376.317444 233.527512,376.488586 233.838135,376.288940 
	C235.515320,375.211029 237.024017,373.321442 238.794662,373.052185 
	C242.540634,372.482483 246.852951,371.637329 250.122269,372.939880 
	C254.260590,374.588745 254.371750,379.325714 253.616318,383.463562 
	C252.691116,388.531372 251.521744,393.554504 250.584000,398.620270 
	C250.231155,400.526337 250.231186,402.497742 250.070328,404.439362 
	C250.491684,404.732391 250.913040,405.025421 251.334381,405.318451 
	C252.995850,403.642761 254.657303,401.967041 257.180023,399.422668 
	C257.416840,400.011444 258.042908,400.798126 257.964844,401.507355 
	C257.628143,404.567261 253.180801,407.417694 249.531036,407.081024 
	C245.679657,406.725708 244.305237,404.084686 244.661377,400.826782 
	C245.220474,395.712128 246.294846,390.649506 247.253006,385.584167 
	C247.990906,381.683167 249.804123,377.028168 245.400574,374.783356 
	C240.711945,372.393219 237.377716,376.348083 234.473114,379.575836 
	C233.046158,381.161530 232.024780,383.112244 230.674744,385.269073 
M232.185471,376.136688 
	C232.311035,376.543121 232.436600,376.949554 232.562164,377.355988 
	C232.786362,377.240570 233.210571,377.104828 233.201248,377.013092 
	C233.152512,376.533295 232.993790,376.064606 232.185471,376.136688 
z"/>
<path fill="#C8E8E0" opacity="1.000000" stroke="none" 
	d="
M338.121338,397.548767 
	C338.068695,400.186432 338.068695,402.375824 338.068695,404.565247 
	C338.484894,404.735748 338.901123,404.906281 339.317322,405.076813 
	C340.760742,403.507751 342.204132,401.938721 344.062195,399.918945 
	C344.432495,400.642639 345.325714,402.015594 345.172241,402.144745 
	C343.102997,403.886078 341.015106,406.483276 338.673096,406.772400 
	C336.389587,407.054291 333.809387,404.932465 331.359467,403.865997 
	C331.522614,403.439270 331.685791,403.012543 331.848969,402.585815 
	C331.553101,402.633820 331.139191,402.572449 330.978638,402.745819 
	C327.194183,406.831329 322.818512,409.379639 317.268036,406.702301 
	C311.490326,403.915344 310.020752,398.515747 310.855316,392.787537 
	C311.558563,387.960602 312.626251,382.895477 314.876282,378.647430 
	C319.203613,370.477539 328.454926,369.327850 336.521057,375.214630 
	C338.142792,374.019775 339.763184,372.826965 341.383606,371.634186 
	C341.762146,371.871368 342.140686,372.108582 342.519226,372.345764 
	C341.070801,380.597351 339.622375,388.848938 338.121338,397.548767 
M321.439606,376.961853 
	C317.423004,383.820557 316.233917,391.319855 317.053650,399.062836 
	C317.268127,401.088654 318.785217,404.054962 320.370239,404.580597 
	C322.291840,405.217804 325.191132,404.182159 327.160828,403.015289 
	C328.889099,401.991425 330.509827,399.980896 331.138275,398.065094 
	C332.676880,393.374847 333.670532,388.500305 334.775116,383.675079 
	C335.555664,380.265320 335.630524,376.852142 331.990723,374.958344 
	C328.436035,373.108826 324.942566,373.257965 321.439606,376.961853 
z"/>
<path fill="#C8E8E0" opacity="1.000000" stroke="none" 
	d="
M541.829102,397.226868 
	C541.269592,389.840637 542.261169,383.175964 546.479370,377.375854 
	C551.440308,370.554443 559.530579,369.736969 567.499939,375.108276 
	C569.144043,373.973236 570.797302,372.831879 573.599243,370.897491 
	C571.686218,382.936218 569.993469,393.588776 568.300720,404.241333 
	C569.129639,404.760284 569.958557,405.279236 570.787476,405.798187 
	C572.112305,403.960724 573.437195,402.123260 575.166687,399.724579 
	C575.548218,400.649445 576.356323,402.027344 576.150818,402.200195 
	C574.083008,403.939514 571.974976,406.496368 569.625488,406.788116 
	C567.352722,407.070343 564.783325,404.963318 561.390503,403.492249 
	C558.780396,405.881531 554.787659,409.217377 549.039062,407.073364 
	C544.654114,405.437958 542.745239,401.928741 541.829102,397.226868 
M547.676086,394.518127 
	C547.716736,395.679169 547.424805,396.988678 547.863708,397.971863 
	C548.942810,400.388916 549.904968,403.989868 551.761475,404.620667 
	C553.754028,405.297546 557.347229,403.765472 559.093506,402.037109 
	C561.321838,399.831635 562.813416,396.605682 563.860535,393.557800 
	C564.978638,390.303467 565.118347,386.724579 565.850037,383.322876 
	C566.721619,379.270844 565.913818,375.993317 561.826782,374.294922 
	C558.025696,372.715363 553.499634,374.175873 551.832886,378.367432 
	C549.901367,383.224792 549.047607,388.510773 547.676086,394.518127 
z"/>
<path fill="#CAEAE2" opacity="1.000000" stroke="none" 
	d="
M168.418335,371.403259 
	C173.469055,372.601868 175.566422,375.860779 175.113052,380.317993 
	C174.559601,385.759216 173.298584,391.125763 172.438339,396.539673 
	C172.016464,399.194733 171.808655,401.883820 171.503952,404.557495 
	C172.024704,404.790222 172.545441,405.022980 173.066193,405.255707 
	C174.626648,403.592743 176.187103,401.929779 177.974701,400.024750 
	C178.361069,400.500916 179.467209,401.279419 179.364609,401.834564 
	C178.790878,404.938904 174.192642,407.613800 170.650146,407.054352 
	C166.891479,406.460785 165.688782,403.748108 166.058716,400.492401 
	C166.545441,396.209015 167.548141,391.984039 168.334702,387.734985 
	C168.606934,386.264343 169.293304,384.740814 169.095337,383.339661 
	C168.681061,380.407715 167.804840,377.541016 167.118347,374.647522 
	C163.976532,375.626007 159.863083,375.701080 157.918350,377.792603 
	C154.927277,381.009552 152.764114,385.408600 151.458176,389.675934 
	C149.819046,395.031982 149.400192,400.761475 148.377274,406.785828 
	C146.586502,406.867920 144.874283,406.946381 142.513275,407.054596 
	C144.355820,396.147186 146.113708,385.740814 147.918945,375.054230 
	C146.088074,374.482971 144.595551,374.017273 143.103043,373.551575 
	C143.090561,373.253815 143.078079,372.956055 143.065598,372.658295 
	C146.573792,372.658295 150.081985,372.658295 153.799622,372.658295 
	C153.799622,373.760193 153.799622,375.191956 153.799622,375.958282 
	C158.450256,374.441162 163.242264,372.877930 168.418335,371.403259 
z"/>
<path fill="#C5E6DD" opacity="1.000000" stroke="none" 
	d="
M184.150421,401.692322 
	C181.241364,392.670837 182.416306,384.430695 187.701416,377.146423 
	C192.699051,370.258362 201.136765,369.676727 208.447250,375.228271 
	C210.017502,374.060364 211.628998,372.861786 214.552673,370.687256 
	C212.663055,382.936127 211.010681,393.647125 209.358307,404.358154 
	C210.000153,404.584442 210.641998,404.810760 211.283844,405.037079 
	C212.730576,403.467224 214.177292,401.897400 216.032669,399.884155 
	C216.420547,400.582703 217.375336,401.922272 217.215408,402.072113 
	C215.345901,403.823792 213.381958,406.589264 211.297501,406.717224 
	C208.641769,406.880249 205.852707,404.871613 202.376526,403.506805 
	C194.894485,409.763672 190.010544,409.635986 184.150421,401.692322 
M190.329346,384.169678 
	C189.857391,389.108887 189.033203,394.051910 189.087128,398.985382 
	C189.108658,400.953644 190.750687,404.188446 192.222855,404.552856 
	C194.382050,405.087372 197.166855,403.822174 199.456635,402.808014 
	C200.682800,402.264893 201.960571,400.782959 202.305557,399.483276 
	C204.074249,392.819916 205.983566,386.129791 206.789978,379.324158 
	C206.971695,377.790588 203.188400,374.725952 200.809052,374.170380 
	C195.804535,373.001770 193.049225,375.923981 190.329346,384.169678 
z"/>
<path fill="#A0D3B3" opacity="1.000000" stroke="none" 
	d="
M423.934692,124.502411 
	C416.418213,135.664215 408.801178,146.588409 400.982697,157.366440 
	C399.851990,158.925156 397.754211,159.782349 395.751892,160.974670 
	C395.341125,154.624359 395.282440,148.263550 395.640259,141.391754 
	C402.542999,132.984879 410.550720,126.118240 413.159241,115.599167 
	C416.695984,118.472061 420.232727,121.344963 423.934692,124.502411 
z"/>
<path fill="#AAD8B7" opacity="1.000000" stroke="none" 
	d="
M357.012848,170.385742 
	C359.170471,158.856308 366.463684,150.518784 373.520294,142.078720 
	C374.623962,140.758636 376.439148,140.033401 378.259888,139.002258 
	C378.648224,147.997375 378.702026,157.023346 378.318024,166.519257 
	C375.921509,168.507355 373.827972,169.884659 372.047699,171.589172 
	C370.676544,172.902008 370.014496,175.244125 368.476135,176.029083 
	C365.873322,177.357178 364.718597,178.952667 364.898071,181.812698 
	C364.919556,182.154358 363.545715,182.583588 362.818604,182.972229 
	C362.691193,178.080490 362.310242,173.304016 357.012848,170.385742 
z"/>
<path fill="#92CCAE" opacity="1.000000" stroke="none" 
	d="
M299.455353,295.992371 
	C299.143829,289.647888 304.403839,284.549652 312.026215,283.177368 
	C314.994019,275.725616 319.560028,269.619049 326.460815,265.014038 
	C326.874023,270.723267 326.937042,276.461090 327.091858,282.886597 
	C327.402008,283.830811 327.679443,283.967896 328.015930,283.985565 
	C329.080139,283.959137 330.144318,283.932709 331.531799,284.324463 
	C329.901978,288.476990 327.948914,292.211304 325.995850,295.945587 
	C317.302856,295.991089 308.609863,296.036591 299.455353,295.992371 
z"/>
<path fill="#C8E8E0" opacity="1.000000" stroke="none" 
	d="
M410.256958,383.400146 
	C412.886169,377.034607 416.687836,372.570984 423.535675,371.459930 
	C431.829132,370.114319 437.898010,374.362457 439.326355,382.643524 
	C441.246674,393.777008 435.005951,405.145538 425.805695,407.273712 
	C416.010193,409.539551 408.445648,403.619263 408.642853,393.567230 
	C408.707092,390.291962 409.606323,387.033112 410.256958,383.400146 
M428.601959,402.130768 
	C430.308228,395.976654 432.488159,389.902496 433.545654,383.638855 
	C434.195251,379.791229 433.342743,375.470093 428.496948,373.998871 
	C424.278107,372.718018 419.540802,374.949402 417.909790,379.990875 
	C416.200623,385.273956 415.123169,390.916199 414.878082,396.450592 
	C414.761261,399.088470 416.550262,402.692749 418.661652,404.334778 
	C421.623169,406.638031 425.292694,405.438843 428.601959,402.130768 
z"/>
<path fill="#C5E6DD" opacity="1.000000" stroke="none" 
	d="
M631.069092,403.174072 
	C623.041382,409.207489 614.541443,409.247894 609.901794,403.116180 
	C604.473755,395.942596 606.289001,388.231506 609.690857,381.000946 
	C612.871155,374.241486 618.856750,371.107513 626.282104,371.242859 
	C631.181396,371.332153 635.484314,374.570770 635.997375,378.336029 
	C636.672119,383.287537 634.323730,386.942932 629.830322,388.533722 
	C624.585815,390.390411 619.070496,391.482361 613.084839,393.061188 
	C613.053284,393.432098 612.895996,394.539398 612.876282,395.649139 
	C612.805054,399.663757 613.343750,403.595764 617.850342,404.915436 
	C622.287537,406.214752 625.886719,404.353119 628.861694,400.923981 
	C629.604675,400.067566 630.996399,399.773956 632.089966,399.221680 
	C631.827393,400.453156 631.564758,401.684631 631.069092,403.174072 
M626.170166,374.040710 
	C617.989868,374.335632 613.352844,380.275299 614.336975,389.960114 
	C618.061890,389.193848 622.168030,389.200867 625.273010,387.441284 
	C627.761780,386.030914 629.721191,382.674133 630.553833,379.788300 
	C630.959106,378.383606 628.252258,376.081024 626.170166,374.040710 
z"/>
<path fill="#C5E6DD" opacity="1.000000" stroke="none" 
	d="
M395.386902,374.266663 
	C393.508453,374.157074 391.643799,373.606689 390.609619,374.298279 
	C388.741638,375.547363 386.326141,377.401581 386.082397,379.258240 
	C385.834808,381.143951 387.455872,383.962006 389.125061,385.240540 
	C391.274475,386.886902 394.382568,387.211060 396.908173,388.450287 
	C404.251953,392.053772 404.821594,400.683899 398.118713,405.348755 
	C393.468689,408.584839 384.940369,408.875183 380.576843,405.520782 
	C379.000336,404.308868 377.828339,402.208588 377.203369,400.276947 
	C376.899811,399.338806 378.282196,397.855286 379.279449,397.005432 
	C382.903809,404.573334 386.742645,406.897461 392.579590,404.643494 
	C394.542145,403.885620 396.888519,401.487640 397.112152,399.607635 
	C397.332123,397.758514 395.328674,395.398499 393.821136,393.684601 
	C392.947449,392.691345 391.145416,392.477661 389.730896,392.003357 
	C382.285736,389.507080 379.469604,385.734589 380.744019,379.905914 
	C382.049744,373.933960 388.166992,370.179199 395.149078,371.480164 
	C397.663391,371.948669 400.570404,372.847412 402.234558,374.574615 
	C403.685974,376.081085 404.187561,379.072815 404.005188,381.318695 
	C403.925842,382.295563 401.083771,383.048035 400.597900,383.309540 
	C398.748260,379.887054 397.261658,377.136383 395.386902,374.266663 
z"/>
<path fill="#83C3A8" opacity="1.000000" stroke="none" 
	d="
M411.202087,195.165131 
	C414.727783,182.816513 424.596802,174.669586 430.615723,164.076141 
	C431.396210,162.702423 433.421814,162.036163 435.208496,161.009064 
	C435.612671,167.334198 435.679016,173.692474 435.343658,180.555786 
	C432.581726,183.684479 430.119476,186.224564 427.886566,188.952408 
	C424.948914,192.541168 422.272339,196.346130 419.271515,199.877975 
	C418.811310,200.419632 417.213623,199.994781 416.142029,200.016937 
	C414.548309,198.496872 412.954590,196.976776 411.202087,195.165131 
z"/>
<path fill="#7ABFA6" opacity="1.000000" stroke="none" 
	d="
M416.085510,200.481445 
	C417.213623,199.994781 418.811310,200.419632 419.271515,199.877975 
	C422.272339,196.346130 424.948914,192.541168 427.886566,188.952408 
	C430.119476,186.224564 432.581726,183.684479 435.266418,181.016235 
	C435.640839,187.999847 435.690735,195.028091 435.664551,202.517914 
	C433.734070,204.330536 431.462097,205.356247 430.106598,207.096024 
	C426.596741,211.601074 423.555145,216.467941 420.177399,221.081085 
	C419.350128,222.210938 417.950470,222.921692 416.490051,223.905411 
	C416.120392,216.305786 416.074707,208.625870 416.085510,200.481445 
z"/>
<path fill="#AAD8B7" opacity="1.000000" stroke="none" 
	d="
M412.994629,115.322952 
	C410.550720,126.118240 402.542999,132.984879 395.734344,140.930878 
	C395.332245,127.980011 395.252563,114.979065 395.420959,101.543617 
	C395.668976,101.109116 395.952637,101.019989 395.952637,101.019989 
	C401.578430,105.695572 407.204193,110.371155 412.994629,115.322952 
z"/>
<path fill="#E6F8CC" opacity="1.000000" stroke="none" 
	d="
M362.540955,304.904724 
	C361.462646,305.646545 359.945892,306.821594 358.375488,306.898254 
	C335.017273,308.038666 311.649048,308.973022 288.289673,310.092102 
	C278.525757,310.559845 268.777100,311.347015 258.593933,311.980011 
	C258.166351,309.818756 258.166351,307.666473 258.166351,304.827087 
	C292.772858,304.827087 327.425232,304.827087 362.540955,304.904724 
z"/>
<path fill="#96CEB0" opacity="1.000000" stroke="none" 
	d="
M378.703552,214.510315 
	C377.006165,215.857162 375.123749,216.464645 373.806305,217.683029 
	C370.709015,220.547455 367.898834,223.720871 364.916870,226.713898 
	C364.636627,226.995178 363.962372,226.883942 363.139893,226.966644 
	C362.721130,218.625214 362.633484,210.272095 363.084412,201.462982 
	C367.773254,201.496567 369.625214,198.634659 371.910675,195.875748 
	C373.619293,193.813187 376.334961,192.584869 378.602203,190.985062 
	C378.659912,198.672897 378.717621,206.360748 378.703552,214.510315 
z"/>
<path fill="#C8E8E0" opacity="1.000000" stroke="none" 
	d="
M268.067841,387.477844 
	C267.688416,390.695801 267.163055,393.491791 267.091736,396.299347 
	C266.999908,399.915527 267.660065,403.579620 271.597168,404.899658 
	C275.667206,406.264343 278.962738,404.327972 281.774750,401.344391 
	C282.727661,400.333313 284.025940,399.647827 285.543396,399.355408 
	C283.192017,405.741364 277.620544,408.567047 271.392822,407.373291 
	C265.097229,406.166534 261.373688,401.826813 261.004486,395.265900 
	C260.291290,382.590942 266.947632,372.835724 277.287567,371.402252 
	C282.735260,370.647003 287.818970,373.414459 289.390533,377.990814 
	C290.979095,382.616669 289.281860,384.879608 283.837860,384.892822 
	C283.974945,383.745819 284.444672,382.546967 284.172241,381.551147 
	C283.517151,379.156494 283.008087,375.343079 281.539062,374.863739 
	C279.163574,374.088776 274.983643,374.577301 273.510498,376.247559 
	C270.936737,379.165741 269.839661,383.386292 268.067841,387.477844 
z"/>
<path fill="#CAEAE2" opacity="1.000000" stroke="none" 
	d="
M359.018188,378.225952 
	C357.533112,387.182098 356.082520,395.704895 354.631927,404.227722 
	C355.632019,404.808563 356.632080,405.389404 357.632172,405.970245 
	C358.857788,403.987793 360.083405,402.005341 361.577728,399.588226 
	C362.120758,400.655518 363.009674,401.648315 362.790070,402.089935 
	C360.987152,405.715332 358.024475,407.745117 353.902039,406.940918 
	C350.204773,406.219666 349.326111,403.127075 349.780823,399.995361 
	C351.211609,390.141266 352.932892,380.329407 354.530426,370.499359 
	C355.217590,366.271271 355.876801,362.038666 356.577301,357.628204 
	C354.683136,357.133484 353.227539,356.753296 351.771912,356.373108 
	C351.810760,356.035645 351.849609,355.698151 351.888458,355.360657 
	C355.451965,355.360657 359.015503,355.360657 362.988159,355.360657 
	C361.679840,362.817993 360.366241,370.305328 359.018188,378.225952 
z"/>
<path fill="#A0D3B3" opacity="1.000000" stroke="none" 
	d="
M378.682373,190.523697 
	C376.334961,192.584869 373.619293,193.813187 371.910675,195.875748 
	C369.625214,198.634659 367.773254,201.496567 363.211731,201.010986 
	C362.711456,195.288651 362.622467,189.562332 362.676025,183.404114 
	C363.545715,182.583588 364.919556,182.154358 364.898071,181.812698 
	C364.718597,178.952667 365.873322,177.357178 368.476135,176.029083 
	C370.014496,175.244125 370.676544,172.902008 372.047699,171.589172 
	C373.827972,169.884659 375.921509,168.507355 378.235504,166.979156 
	C378.648071,174.666855 378.705292,182.364594 378.682373,190.523697 
z"/>
<path fill="#CCEAE3" opacity="1.000000" stroke="none" 
	d="
M597.417969,375.742981 
	C592.215393,378.466736 590.155334,382.888550 589.196228,387.957275 
	C588.024170,394.151428 586.977234,400.369263 585.840942,406.775391 
	C583.954224,406.775391 582.210266,406.775391 580.059082,406.775391 
	C581.904053,396.056580 583.695435,385.649292 585.528992,374.997314 
	C583.625977,374.411438 582.150818,373.957245 580.675659,373.503082 
	C580.661621,373.212311 580.647644,372.921539 580.633606,372.630768 
	C584.014465,372.630768 587.395264,372.630768 591.053223,372.630768 
	C591.088318,373.351837 591.147156,374.562408 591.226746,376.197418 
	C597.005371,373.669769 602.630310,366.736786 608.391052,376.405914 
	C606.835205,377.561157 605.446350,378.592377 604.997131,378.925934 
	C602.049011,377.570221 599.924988,376.593475 597.417969,375.742981 
z"/>
<path fill="#6BB59C" opacity="1.000000" stroke="none" 
	d="
M381.400024,316.907898 
	C382.693390,316.209656 384.425995,315.175507 386.216370,315.063324 
	C400.623322,314.160278 415.049072,313.551636 429.453094,312.608856 
	C440.154755,311.908447 450.832611,310.843597 461.894653,309.886780 
	C462.373474,311.944885 462.478729,314.057343 462.625275,316.999207 
	C435.356445,316.999207 408.611237,316.999207 381.400024,316.907898 
z"/>
<path fill="#CDEBE4" opacity="1.000000" stroke="none" 
	d="
M137.744431,403.943970 
	C134.963943,406.764832 131.504120,408.608429 128.705246,406.282196 
	C126.783798,404.685242 125.734138,400.788391 125.980301,398.072327 
	C126.678459,390.368927 128.242340,382.743988 129.494385,374.906158 
	C127.636131,374.334991 126.190392,373.890625 124.744659,373.446259 
	C124.768379,373.141541 124.792107,372.836823 124.815826,372.532104 
	C128.358887,372.532104 131.901947,372.532104 135.797180,372.532104 
	C134.815598,383.164062 131.359116,393.685242 131.212860,404.526031 
	C131.763840,404.717743 132.314804,404.909454 132.865784,405.101196 
	C134.319199,403.485748 135.772614,401.870331 138.405548,398.943909 
	C138.190613,401.380310 138.089081,402.531067 137.744431,403.943970 
z"/>
<path fill="#CDEBE4" opacity="1.000000" stroke="none" 
	d="
M294.503296,396.403625 
	C295.764252,388.972931 296.913849,381.966797 298.085388,374.827057 
	C296.180389,374.310272 294.677734,373.902618 293.175079,373.494995 
	C293.189240,373.188782 293.203430,372.882568 293.217621,372.576355 
	C296.778503,372.576355 300.339386,372.576355 304.311768,372.576355 
	C302.678741,382.982330 301.009583,393.618561 299.340424,404.254822 
	C299.962982,404.541138 300.585541,404.827454 301.208069,405.113770 
	C302.730316,403.510010 304.252563,401.906281 306.201355,399.853149 
	C306.550995,400.687012 307.431732,401.798950 307.164337,402.309937 
	C305.396973,405.686676 302.558105,407.634583 298.639862,406.982574 
	C295.002045,406.377228 294.133362,403.484467 294.051086,400.291412 
	C294.021423,399.140717 294.270203,397.982819 294.503296,396.403625 
z"/>
<path fill="#6BB59C" opacity="1.000000" stroke="none" 
	d="
M372.459839,296.048340 
	C373.875153,293.613434 375.820404,291.302979 377.605835,288.875061 
	C378.531860,287.615814 379.175140,286.148682 379.969757,284.419312 
	C385.684448,284.012177 391.375519,283.961243 397.530121,283.976074 
	C396.791992,286.266388 395.585388,288.488312 394.390472,290.716461 
	C393.588959,292.211029 392.804016,293.714478 392.002472,295.588715 
	C385.636688,296.016998 379.280090,296.070526 372.459839,296.048340 
z"/>
<path fill="#87C5A9" opacity="1.000000" stroke="none" 
	d="
M326.457092,296.032867 
	C327.948914,292.211304 329.901978,288.476990 331.924805,284.399017 
	C337.354431,283.996613 342.714325,283.937866 348.538147,283.944214 
	C347.353516,287.754700 345.704926,291.500092 344.025574,295.607056 
	C338.302673,296.019165 332.610504,296.069672 326.457092,296.032867 
z"/>
<path fill="#BCE2BD" opacity="1.000000" stroke="none" 
	d="
M378.698792,79.580399 
	C377.170013,80.507263 375.640533,79.181030 374.756256,82.529793 
	C373.784180,86.210899 369.468018,89.060089 366.415894,92.076500 
	C366.031189,92.456741 364.475006,91.651695 363.222046,91.194672 
	C359.464966,84.921326 366.457611,83.515648 368.194366,79.799210 
	C369.445221,77.122581 372.364746,75.170952 374.714783,73.093681 
	C375.495178,72.403847 376.819214,72.329002 378.257751,71.966034 
	C378.677856,74.352936 378.734894,76.746780 378.698792,79.580399 
z"/>
<path fill="#C8E8E0" opacity="1.000000" stroke="none" 
	d="
M133.832565,356.934387 
	C135.766220,357.544922 137.358383,358.273987 138.950562,359.003052 
	C138.222046,360.548950 137.861954,362.624207 136.646347,363.470154 
	C135.704971,364.125336 133.693451,363.242798 132.157654,363.043823 
	C132.602127,361.046844 133.046600,359.049866 133.832565,356.934387 
z"/>
<path fill="#C8E8E0" opacity="1.000000" stroke="none" 
	d="
M301.228180,357.612244 
	C303.315063,357.506470 305.209442,357.399048 306.877258,357.962341 
	C307.314697,358.110046 307.570160,360.720306 306.983185,361.519592 
	C306.136810,362.672028 304.380707,363.966858 303.124573,363.862030 
	C298.627319,363.486542 299.483643,360.677979 301.228180,357.612244 
z"/>
<path fill="#C7E7C1" opacity="1.000000" stroke="none" 
	d="
M326.903320,134.581360 
	C325.583221,134.047546 324.334869,133.088745 323.086548,132.129944 
	C324.083069,131.095154 325.079620,130.060379 326.453522,129.010147 
	C326.878967,130.715240 326.927032,132.435806 326.903320,134.581360 
z"/>
<path fill="#D2EDC5" opacity="1.000000" stroke="none" 
	d="
M338.326050,111.098892 
	C340.036224,111.302864 341.661438,111.770065 343.286621,112.237274 
	C343.191650,112.687935 343.096680,113.138603 343.001678,113.589264 
	C341.701508,113.404007 340.401306,113.218742 338.769775,113.010139 
	C338.372650,112.445236 338.306885,111.903679 338.326050,111.098892 
z"/>
<path fill="#8AC6AA" opacity="1.000000" stroke="none" 
	d="
M378.883728,48.800968 
	C378.355499,49.016003 377.929932,48.961086 377.183044,48.890892 
	C377.569946,48.760754 378.278168,48.645885 378.883728,48.800968 
z"/>
<path fill="#74B99F" opacity="1.000000" stroke="none" 
	d="
M327.844666,283.842407 
	C327.679443,283.967896 327.402008,283.830811 327.076355,283.364014 
	C327.195374,283.346527 327.430145,283.528381 327.844666,283.842407 
z"/>
<path fill="#A5D5B4" opacity="1.000000" stroke="none" 
	d="
M287.818481,153.349274 
	C287.983490,153.571182 287.866608,153.775864 287.495300,153.998474 
	C287.269165,153.770050 287.367737,153.541931 287.818481,153.349274 
z"/>
<path fill="#8AC6AA" opacity="1.000000" stroke="none" 
	d="
M395.914551,100.854416 
	C395.952637,101.019989 395.668976,101.109116 395.521606,101.089401 
	C395.541687,100.942741 395.709076,100.815796 395.914551,100.854416 
z"/>
<path fill="#C7E7C1" opacity="1.000000" stroke="none" 
	d="
M314.039368,144.374390 
	C313.531372,144.362854 313.169342,144.197540 312.807312,144.032211 
	C312.992340,143.822281 313.177368,143.612350 313.362396,143.402420 
	C313.636688,143.675140 313.911011,143.947876 314.039368,144.374390 
z"/>
<path fill="#0A5943" opacity="1.000000" stroke="none" 
	d="
M471.638428,367.221497 
	C471.348969,368.908783 471.061707,370.203644 470.720123,371.743530 
	C466.321686,371.743530 461.899628,371.743530 456.603729,371.743530 
	C457.756927,367.603302 458.244110,363.388000 460.157776,359.971771 
	C461.192596,358.124420 464.663116,357.641449 467.034851,356.542999 
	C467.884888,358.658386 468.686768,360.794922 469.602203,362.881622 
	C470.195923,364.235046 470.955414,365.515778 471.638428,367.221497 
z"/>
<path fill="#01543D" opacity="1.000000" stroke="none" 
	d="
M232.529388,375.864380 
	C232.993790,376.064606 233.152512,376.533295 233.201248,377.013092 
	C233.210571,377.104828 232.786362,377.240570 232.562164,377.355988 
	C232.436600,376.949554 232.311035,376.543121 232.529388,375.864380 
z"/>
<path fill="#065741" opacity="1.000000" stroke="none" 
	d="
M321.731262,376.704041 
	C324.942566,373.257965 328.436035,373.108826 331.990723,374.958344 
	C335.630524,376.852142 335.555664,380.265320 334.775116,383.675079 
	C333.670532,388.500305 332.676880,393.374847 331.138275,398.065094 
	C330.509827,399.980896 328.889099,401.991425 327.160828,403.015289 
	C325.191132,404.182159 322.291840,405.217804 320.370239,404.580597 
	C318.785217,404.054962 317.268127,401.088654 317.053650,399.062836 
	C316.233917,391.319855 317.423004,383.820557 321.731262,376.704041 
z"/>
<path fill="#065741" opacity="1.000000" stroke="none" 
	d="
M547.701050,394.064392 
	C549.047607,388.510773 549.901367,383.224792 551.832886,378.367432 
	C553.499634,374.175873 558.025696,372.715363 561.826782,374.294922 
	C565.913818,375.993317 566.721619,379.270844 565.850037,383.322876 
	C565.118347,386.724579 564.978638,390.303467 563.860535,393.557800 
	C562.813416,396.605682 561.321838,399.831635 559.093506,402.037109 
	C557.347229,403.765472 553.754028,405.297546 551.761475,404.620667 
	C549.904968,403.989868 548.942810,400.388916 547.863708,397.971863 
	C547.424805,396.988678 547.716736,395.679169 547.701050,394.064392 
z"/>
<path fill="#065741" opacity="1.000000" stroke="none" 
	d="
M190.465714,383.784698 
	C193.049225,375.923981 195.804535,373.001770 200.809052,374.170380 
	C203.188400,374.725952 206.971695,377.790588 206.789978,379.324158 
	C205.983566,386.129791 204.074249,392.819916 202.305557,399.483276 
	C201.960571,400.782959 200.682800,402.264893 199.456635,402.808014 
	C197.166855,403.822174 194.382050,405.087372 192.222855,404.552856 
	C190.750687,404.188446 189.108658,400.953644 189.087128,398.985382 
	C189.033203,394.051910 189.857391,389.108887 190.465714,383.784698 
z"/>
<path fill="#065741" opacity="1.000000" stroke="none" 
	d="
M428.341858,402.421204 
	C425.292694,405.438843 421.623169,406.638031 418.661652,404.334778 
	C416.550262,402.692749 414.761261,399.088470 414.878082,396.450592 
	C415.123169,390.916199 416.200623,385.273956 417.909790,379.990875 
	C419.540802,374.949402 424.278107,372.718018 428.496948,373.998871 
	C433.342743,375.470093 434.195251,379.791229 433.545654,383.638855 
	C432.488159,389.902496 430.308228,395.976654 428.341858,402.421204 
z"/>
<path fill="#0A5943" opacity="1.000000" stroke="none" 
	d="
M626.562195,374.112793 
	C628.252258,376.081024 630.959106,378.383606 630.553833,379.788300 
	C629.721191,382.674133 627.761780,386.030914 625.273010,387.441284 
	C622.168030,389.200867 618.061890,389.193848 614.336975,389.960114 
	C613.352844,380.275299 617.989868,374.335632 626.562195,374.112793 
z"/>
</svg>