<svg version="1.1" id="Layer_1" xmlns="http://www.w3.org/2000/svg" xmlns:xlink="http://www.w3.org/1999/xlink" x="0px" y="0px"
	 width="100%" viewBox="0 0 378 482" enable-background="new 0 0 378 482" xml:space="preserve">
<path fill="#00543D" opacity="1.000000" stroke="none" 
	d="
M379.000000,2.000000 
	C379.000000,161.690750 379.000000,321.381500 378.533966,481.536957 
	C252.378616,482.001129 126.689308,482.000549 1.000000,482.000000 
	C1.000000,322.309265 1.000000,162.618515 1.468657,2.464697 
	C64.511681,2.001701 127.086052,1.995118 189.660416,2.008653 
	C199.643433,2.010813 209.626434,2.103229 219.565536,2.365730 
	C219.308838,2.943466 219.096039,3.309391 218.566498,3.775212 
	C216.799850,5.182481 215.349945,6.489856 213.678101,7.827009 
	C213.188065,8.191620 212.920013,8.526453 212.311890,9.006620 
	C208.934845,11.699244 205.893433,14.241284 202.861603,16.794691 
	C186.342041,30.707504 169.797623,44.591198 153.362915,58.603569 
	C152.160492,59.628773 151.097977,61.586746 151.085953,63.119808 
	C150.973740,77.410416 151.105820,91.702950 151.093536,106.458771 
	C151.068954,114.278984 151.117966,121.635353 151.093781,129.455811 
	C151.068954,145.611740 151.117340,161.303558 151.093506,177.454437 
	C151.010391,180.986038 150.776108,184.080673 151.077072,187.122360 
	C151.242844,188.797867 152.308182,190.384369 153.024841,192.270462 
	C153.393631,192.659882 153.705505,192.789841 154.149567,193.134430 
	C154.691299,193.621811 155.100891,193.894547 155.679993,194.470642 
	C160.523514,198.630341 165.197495,202.486664 170.033478,206.624451 
	C176.000275,211.669037 181.805084,216.432190 187.781036,221.496979 
	C190.463318,224.565552 195.005814,225.957825 194.103577,231.453842 
	C194.079315,248.275574 194.122681,264.632263 194.095520,281.453735 
	C194.069580,294.609009 194.114151,307.299500 194.089722,320.454956 
	C194.070724,331.610168 194.120758,342.300415 194.102783,353.455566 
	C194.078979,360.942474 194.123169,367.964478 194.103912,375.452148 
	C194.040451,390.248047 194.040451,404.578247 194.040451,419.796265 
	C187.858276,419.796265 182.440704,419.796265 176.576202,419.668396 
	C166.080948,419.627716 156.032608,419.714935 145.530914,419.688751 
	C140.647324,419.575348 136.217102,419.575348 130.944321,419.575348 
	C130.944321,414.524445 130.944321,410.260895 131.022003,405.534363 
	C131.047729,393.380188 130.995789,381.688995 131.024200,369.535187 
	C131.050888,359.048279 130.997192,349.023926 131.028915,338.537689 
	C131.061996,330.717133 131.009689,323.358521 131.044006,315.538147 
	C131.065323,308.050690 131.000000,301.024902 131.026123,293.538239 
	C131.060364,283.384491 131.003143,273.691681 131.031799,263.536987 
	C131.062271,252.716095 131.006882,242.357040 131.036804,231.536224 
	C131.062485,221.048996 131.002838,211.023544 131.030579,200.536652 
	C131.062134,183.383087 131.006317,166.690994 131.042572,149.538544 
	C131.134674,143.166916 131.134674,137.255630 131.134674,131.344330 
	C130.571671,131.057587 130.008652,130.770844 129.445648,130.484100 
	C128.651566,131.713837 127.857498,132.943573 126.747650,134.271576 
	C122.281517,137.967026 118.131142,141.564224 113.739227,145.180298 
	C113.185555,145.378769 113.033447,145.648575 112.715942,146.119949 
	C111.270645,147.413437 110.258209,148.724915 109.014565,149.758057 
	C93.373039,162.752060 77.659340,175.659744 62.096134,188.746536 
	C60.655327,189.958069 59.345745,192.220215 59.292648,194.033112 
	C59.058914,202.013519 59.308659,210.008072 59.291718,218.458099 
	C59.265755,229.266815 59.331284,239.614960 59.300724,250.366547 
	C59.263195,261.793182 59.321762,272.816345 59.285870,284.245544 
	C59.256386,296.761261 59.321362,308.870972 59.292999,321.442322 
	C59.264488,332.600098 59.329315,343.296173 59.300163,354.452698 
	C59.271622,367.601685 59.337063,380.290222 59.309101,393.440521 
	C59.286331,401.601288 59.356964,409.300293 59.304695,417.443573 
	C57.607632,418.404144 56.041286,419.337006 54.457981,419.366730 
	C46.381233,419.518463 38.300102,419.436798 30.043087,419.436798 
	C30.043087,427.036224 30.043087,433.949127 30.043087,441.151001 
	C39.530296,441.151001 48.768116,441.151001 58.462574,441.265564 
	C65.948914,441.304718 72.978615,441.229309 80.465744,441.264282 
	C89.271263,441.304108 97.619347,441.233521 106.350128,441.300293 
	C114.161842,441.339813 121.590866,441.242004 129.420105,441.242889 
	C141.880890,441.281006 153.941437,441.220459 166.458862,441.255371 
	C171.279556,441.279205 175.643402,441.207520 180.467621,441.230682 
	C188.274445,441.272858 195.620895,441.220215 203.320160,441.308136 
	C212.450241,441.348175 221.227509,441.247650 230.466827,441.233978 
	C238.601578,441.270599 246.274277,441.220367 254.328720,441.318787 
	C285.662354,441.531067 316.614319,441.574493 347.566040,441.691132 
	C350.480774,441.702087 351.268982,440.379456 351.202393,437.724121 
	C351.081421,432.900726 351.036011,428.066650 351.223572,423.247345 
	C351.346191,420.097229 349.962982,419.216919 347.065094,419.282501 
	C341.409393,419.410400 335.728333,419.015045 330.096191,419.399475 
	C325.361389,419.722687 323.857361,418.310120 323.901428,413.377838 
	C324.108124,390.249481 323.900238,367.117462 323.892456,343.521423 
	C323.906891,332.369263 323.869263,321.682343 323.888855,310.530121 
	C323.908600,298.042023 323.871063,286.019226 323.893829,273.531494 
	C323.913452,262.708130 323.872803,252.349747 323.890747,241.526520 
	C323.905548,230.370987 323.861755,219.680283 323.879974,208.525269 
	C323.902130,197.704361 323.862274,187.347733 323.888794,176.527252 
	C323.967773,170.088516 324.177002,164.103760 323.876678,158.144653 
	C323.783051,156.287109 322.689270,154.143005 321.385345,152.759735 
	C319.250641,150.495132 316.569031,148.746048 313.943848,146.499634 
	C307.550812,141.072922 301.332092,135.926102 294.952393,130.492004 
	C290.980438,127.095848 287.169434,123.986977 283.180878,120.584106 
	C280.700592,118.455910 278.397888,116.621727 275.957733,114.508850 
	C274.522156,113.224991 273.223999,112.219833 271.789490,110.937767 
	C271.139465,110.341385 270.625885,110.021912 269.968109,109.412842 
	C264.116241,104.298080 258.408539,99.472908 252.160080,94.190605 
	C252.160080,109.194443 252.160080,123.094818 252.090607,137.459564 
	C252.067627,145.614334 252.114151,153.304749 252.092117,161.459656 
	C252.071976,176.945312 252.120407,191.966461 252.097427,207.452209 
	C252.074142,217.941162 252.122269,227.965515 252.104492,238.356384 
	C252.362457,239.577805 252.435364,240.748184 253.050217,241.237305 
	C257.649231,244.895859 262.355347,248.419800 267.199615,252.270798 
	C271.482330,255.707886 275.593353,258.860077 279.842529,262.267334 
	C287.191040,266.612549 290.674316,272.560242 289.118591,281.452637 
	C289.091064,293.942841 289.128143,305.967438 289.100830,318.457397 
	C289.080139,329.944855 289.123840,340.966980 289.103027,352.454468 
	C289.078400,364.940308 289.118317,376.960754 289.093323,389.447083 
	C289.028381,399.511688 289.028381,409.110413 289.028381,419.783447 
	C280.846527,419.783447 273.413116,419.783447 265.526428,419.658875 
	C256.697510,419.624481 248.321869,419.714691 239.501770,419.680176 
	C233.842316,419.555450 228.627335,419.555450 222.833450,419.555450 
	C222.833450,415.871857 222.833450,412.933167 222.893753,409.529633 
	C222.912949,400.707214 222.871841,392.349609 222.891022,383.527344 
	C222.910889,372.039337 222.870499,361.016022 222.889496,349.527802 
	C222.909149,337.706635 222.869400,326.350403 222.892731,314.529633 
	C222.914444,303.707825 222.873093,293.350494 222.894547,282.528748 
	C222.914902,271.039337 222.872452,260.014374 222.892609,248.525162 
	C222.913544,235.037735 222.871857,222.014572 222.895508,208.527344 
	C222.915649,197.684265 222.870468,187.305252 222.891602,176.510468 
	C222.912842,165.491638 222.867783,154.888565 222.890762,143.862183 
	C222.911835,132.623169 222.864853,121.807426 222.888458,110.528290 
	C222.914673,100.375175 222.870316,90.685455 222.898132,80.532326 
	C222.925446,72.711571 222.880585,65.354233 222.904541,57.532921 
	C222.927551,49.710453 222.881760,42.351963 222.903992,34.529613 
	C223.017166,23.409266 223.062286,12.752778 223.567963,2.058626 
	C275.685669,2.013975 327.342834,2.006987 379.000000,2.000000 
M38.909386,478.410004 
	C51.252209,478.322083 63.595036,478.234131 76.832985,478.453369 
	C91.216118,478.358032 105.599251,478.262695 120.891594,478.415314 
	C136.562622,478.314819 152.233658,478.214294 168.808167,478.425140 
	C186.556229,478.328827 204.304291,478.232513 222.964798,478.337158 
	C232.272339,478.332550 241.579880,478.327942 251.675995,478.614136 
	C253.804138,478.493958 255.932281,478.373749 258.835968,478.328125 
	C259.873322,478.299713 260.910706,478.271301 262.701538,478.567017 
	C264.357635,478.647369 266.013733,478.797150 267.669861,478.797791 
	C300.072388,478.810333 332.474915,478.809174 364.877441,478.801575 
	C372.149445,478.799896 372.357788,478.519257 371.111481,470.198792 
	C371.066193,469.131927 371.020905,468.065063 371.118469,466.203857 
	C371.070435,465.134705 371.022400,464.065521 371.116791,462.335876 
	C371.076569,461.889771 371.036316,461.443695 371.186218,460.107300 
	C370.835236,453.311798 365.943451,457.472260 362.270569,456.548401 
	C347.178436,456.633209 332.086334,456.718018 316.087311,456.559784 
	C304.708771,456.638000 293.330200,456.716217 281.054962,456.541473 
	C268.365906,456.626984 255.676819,456.712524 242.082245,456.552246 
	C226.391434,456.631073 210.700623,456.709900 194.103851,456.532410 
	C177.710876,456.624023 161.317902,456.715637 144.026215,456.573242 
	C99.414345,456.573242 54.802479,456.573242 10.025764,456.573242 
	C10.025764,460.106415 10.025764,463.052948 9.812881,466.733246 
	C9.883723,467.488556 9.954565,468.243896 9.840383,469.785309 
	C9.911163,470.854431 9.981944,471.923523 9.867579,473.650604 
	C9.921641,474.099487 9.975704,474.548370 9.859914,475.876038 
	C10.713989,476.739380 11.561234,478.343445 12.423194,478.351379 
	C20.952703,478.430023 29.484653,478.244232 38.909386,478.410004 
z"/>
<path fill="#E1E9EC" opacity="1.000000" stroke="none" 
	d="
M1.000000,482.500000 
	C126.689308,482.000549 252.378616,482.001129 378.533966,482.000854 
	C377.666656,482.333344 376.333557,482.957306 374.999969,482.958282 
	C310.333344,483.005981 245.666672,483.000000 181.000000,483.000000 
	C121.000000,483.000000 61.000000,483.000000 1.000000,482.500000 
z"/>
<path fill="#E1E9EC" opacity="1.000000" stroke="none" 
	d="
M379.000000,1.500000 
	C327.342834,2.006987 275.685669,2.013975 223.131393,2.042911 
	C221.359329,2.094547 220.484390,2.124233 219.609436,2.153919 
	C209.626434,2.103229 199.643433,2.010813 189.660416,2.008653 
	C127.086052,1.995118 64.511681,2.001701 1.468657,2.000813 
	C2.333333,1.666667 3.666452,1.042697 5.000031,1.041714 
	C69.666656,0.994006 134.333328,1.000000 199.000000,1.000000 
	C259.000000,1.000000 319.000000,1.000000 379.000000,1.500000 
z"/>
<path fill="#5EAE99" opacity="1.000000" stroke="none" 
	d="
M265.979706,419.783447 
	C273.413116,419.783447 280.846527,419.783447 289.028381,419.783447 
	C289.028381,409.110413 289.028381,399.511688 289.421844,389.376526 
	C294.564331,382.676147 299.499786,376.645203 304.015350,370.314728 
	C309.698944,362.346771 314.994629,354.102905 320.585602,346.067078 
	C321.264587,345.091187 322.736176,344.666748 323.840424,343.986725 
	C323.900238,367.117462 324.108124,390.249481 323.901428,413.377838 
	C323.857361,418.310120 325.361389,419.722687 330.096191,419.399475 
	C335.728333,419.015045 341.409393,419.410400 347.065094,419.282501 
	C349.962982,419.216919 351.346191,420.097229 351.223572,423.247345 
	C351.036011,428.066650 351.081421,432.900726 351.202393,437.724121 
	C351.268982,440.379456 350.480774,441.702087 347.566040,441.691132 
	C316.614319,441.574493 285.662354,441.531067 254.399048,440.952820 
	C256.464264,436.720306 258.962585,433.073242 261.179077,429.262238 
	C262.956696,426.205811 264.392303,422.950500 265.979706,419.783447 
z"/>
<path fill="#C9E8C2" opacity="1.000000" stroke="none" 
	d="
M59.380325,283.839508 
	C59.321762,272.816345 59.263195,261.793182 59.704681,250.363770 
	C62.601456,249.567001 65.910431,250.026733 67.219414,248.622360 
	C70.776665,244.805801 73.510826,240.216522 76.521530,235.898849 
	C77.734047,234.159958 78.494652,231.967484 80.021164,230.612640 
	C84.148811,226.949142 89.496361,224.385605 89.959602,217.824951 
	C90.014610,217.046082 91.249084,216.374603 91.882584,215.608490 
	C95.468040,211.272507 99.103859,206.975616 102.588036,202.559311 
	C104.917107,199.607132 107.821503,196.769485 109.060349,193.367798 
	C111.573624,186.466705 116.233459,181.302643 120.811646,175.915955 
	C123.226273,173.074921 125.123039,170.006592 120.823425,166.768143 
	C118.505165,165.022034 118.377106,162.701447 120.755875,160.416656 
	C124.258293,157.052567 127.562088,153.481674 130.950485,149.998886 
	C131.006317,166.690994 131.062134,183.383087 130.660004,200.557083 
	C127.650650,202.459579 124.044647,203.256561 122.761269,205.426941 
	C119.835236,210.375320 118.684891,216.057281 113.747658,220.189758 
	C109.104485,224.076096 105.750343,229.530624 101.961998,234.398636 
	C99.965080,236.964676 97.355705,239.519806 96.588867,242.484848 
	C94.733978,249.656845 88.850006,253.630356 84.903366,259.117615 
	C80.785820,264.842468 76.394310,270.500732 73.249466,276.754791 
	C70.581917,282.059662 65.349937,285.534058 59.380325,283.839508 
z"/>
<path fill="#C0E4BF" opacity="1.000000" stroke="none" 
	d="
M59.285870,284.245544 
	C65.349937,285.534058 70.581917,282.059662 73.249466,276.754791 
	C76.394310,270.500732 80.785820,264.842468 84.903366,259.117615 
	C88.850006,253.630356 94.733978,249.656845 96.588867,242.484848 
	C97.355705,239.519806 99.965080,236.964676 101.961998,234.398636 
	C105.750343,229.530624 109.104485,224.076096 113.747658,220.189758 
	C118.684891,216.057281 119.835236,210.375320 122.761269,205.426941 
	C124.044647,203.256561 127.650650,202.459579 130.572601,201.018539 
	C131.002838,211.023544 131.062485,221.048996 130.694748,231.609467 
	C128.795990,233.997879 127.196167,235.765610 125.887558,237.727570 
	C124.429131,239.914169 123.785248,243.062103 121.832840,244.429840 
	C112.671272,250.847931 109.026031,261.213715 102.929031,269.797546 
	C98.769783,275.653320 92.075073,279.633148 90.317673,287.346527 
	C89.961205,288.911133 87.396690,289.853699 86.256523,291.385529 
	C84.358574,293.935425 82.883301,296.795715 81.058540,299.405365 
	C78.615440,302.899323 75.948059,306.236023 73.487885,309.718597 
	C70.465248,313.997375 67.557007,318.356964 64.713257,322.515045 
	C62.817970,321.969116 61.102154,321.474884 59.386337,320.980652 
	C59.321362,308.870972 59.256386,296.761261 59.285870,284.245544 
z"/>
<path fill="#B0DCB9" opacity="1.000000" stroke="none" 
	d="
M59.402504,392.978760 
	C59.337063,380.290222 59.271622,367.601685 59.653378,354.445038 
	C61.916969,352.967957 64.265678,352.383514 65.463593,350.881317 
	C73.402504,340.926086 81.066193,330.751923 88.882896,320.698334 
	C91.523628,317.301910 94.676521,314.262634 97.013344,310.680481 
	C100.631279,305.134583 103.409103,299.028137 107.160049,293.584412 
	C112.699745,285.544708 118.696571,277.812683 124.683273,270.092743 
	C126.450912,267.813354 128.841064,266.016693 130.945938,263.998840 
	C131.003143,273.691681 131.060364,283.384491 130.710068,293.645996 
	C129.098831,295.537628 127.954498,296.921143 126.680344,298.172424 
	C122.732010,302.049896 117.111198,304.907379 118.790176,312.075378 
	C118.969742,312.842041 117.777618,314.006439 117.089958,314.882904 
	C115.878624,316.426727 114.431236,317.797943 113.320396,319.405701 
	C110.047829,324.142212 107.014236,329.046967 103.662216,333.724731 
	C98.238495,341.293549 92.551567,348.673767 87.127563,356.242401 
	C78.681152,368.028473 70.380768,379.919159 61.940197,391.709473 
	C61.453323,392.389557 60.264591,392.567261 59.402504,392.978760 
z"/>
<path fill="#B8E0BC" opacity="1.000000" stroke="none" 
	d="
M131.031799,263.536987 
	C128.841064,266.016693 126.450912,267.813354 124.683273,270.092743 
	C118.696571,277.812683 112.699745,285.544708 107.160049,293.584412 
	C103.409103,299.028137 100.631279,305.134583 97.013344,310.680481 
	C94.676521,314.262634 91.523628,317.301910 88.882896,320.698334 
	C81.066193,330.751923 73.402504,340.926086 65.463593,350.881317 
	C64.265678,352.383514 61.916969,352.967957 59.747360,353.984619 
	C59.329315,343.296173 59.264488,332.600098 59.292999,321.442322 
	C61.102154,321.474884 62.817970,321.969116 64.713257,322.515045 
	C67.557007,318.356964 70.465248,313.997375 73.487885,309.718597 
	C75.948059,306.236023 78.615440,302.899323 81.058540,299.405365 
	C82.883301,296.795715 84.358574,293.935425 86.256523,291.385529 
	C87.396690,289.853699 89.961205,288.911133 90.317673,287.346527 
	C92.075073,279.633148 98.769783,275.653320 102.929031,269.797546 
	C109.026031,261.213715 112.671272,250.847931 121.832840,244.429840 
	C123.785248,243.062103 124.429131,239.914169 125.887558,237.727570 
	C127.196167,235.765610 128.795990,233.997879 130.609421,232.071243 
	C131.006882,242.357040 131.062271,252.716095 131.031799,263.536987 
z"/>
<path fill="#C5E5C0" opacity="1.000000" stroke="none" 
	d="
M151.165726,176.995377 
	C151.117340,161.303558 151.068954,145.611740 151.436005,129.429886 
	C156.233704,124.626228 160.615936,120.312607 165.295990,115.824615 
	C167.034424,114.604523 168.661636,113.739853 169.882889,112.481262 
	C174.811935,107.401459 179.609238,102.193977 184.469482,97.047119 
	C186.124832,95.294128 187.698227,94.523659 189.960571,96.526596 
	C190.628540,97.117981 192.612549,96.222885 194.378738,96.001938 
	C198.403091,93.161858 202.042145,90.328819 205.619797,87.543594 
	C204.127090,85.257919 203.063248,83.628922 202.004196,81.616142 
	C202.745834,77.653496 203.141296,73.804207 208.507462,74.731750 
	C209.167114,74.845772 210.274521,74.022011 210.740524,73.337463 
	C213.951172,68.621017 216.994415,63.790051 220.238785,59.097767 
	C220.690445,58.444565 221.950104,58.350044 222.835724,57.996895 
	C222.880585,65.354233 222.925446,72.711571 222.556931,80.626282 
	C220.742432,83.459587 219.537155,85.889732 217.894836,87.975800 
	C215.350143,91.208115 212.387131,94.109764 209.819473,97.325668 
	C206.120499,101.958527 202.593552,106.729858 199.035690,111.473991 
	C194.168503,117.963982 189.192657,124.380241 184.552505,131.029861 
	C181.766037,135.023041 179.806183,139.595978 176.992737,143.566772 
	C169.747253,153.792786 162.265152,163.852264 154.786087,173.910233 
	C153.863983,175.150299 152.386078,175.977081 151.165726,176.995377 
z"/>
<path fill="#97CEB0" opacity="1.000000" stroke="none" 
	d="
M252.170410,237.989868 
	C252.122269,227.965515 252.074142,217.941162 252.405441,207.326660 
	C255.678238,202.771072 258.567963,198.802948 261.465820,194.840805 
	C266.217377,188.344162 270.917206,181.808609 275.745361,175.369324 
	C280.329346,169.255630 285.248474,163.384155 289.644867,157.141815 
	C292.881287,152.546463 295.512909,147.525162 298.795563,142.058273 
	C298.552216,141.862534 297.417511,140.949677 296.134766,139.917740 
	C290.463959,151.144836 280.923706,157.207092 270.363983,164.326614 
	C269.493042,161.237625 268.034241,156.874374 268.269958,156.780807 
	C273.816864,154.579391 275.384369,143.796112 285.047852,150.063843 
	C283.845734,147.582535 283.180115,146.208618 282.180725,144.145737 
	C284.398376,144.655792 285.857391,144.991348 286.701294,145.185455 
	C287.481445,142.454758 287.699371,139.790817 288.954926,137.772324 
	C290.573059,135.170929 293.022125,133.086411 295.113342,130.779282 
	C301.332092,135.926102 307.550812,141.072922 313.803345,146.829407 
	C313.802277,153.574310 313.009857,159.363007 306.910004,162.765961 
	C306.647125,162.912628 306.376495,163.269440 306.336914,163.559387 
	C305.374207,170.617935 299.722290,174.718796 295.927673,179.966995 
	C292.975311,184.050308 289.510529,187.765121 286.589355,191.868576 
	C281.857971,198.514832 277.381836,205.342911 272.807129,212.100479 
	C271.888184,213.457932 271.026215,214.853912 270.110474,216.213608 
	C268.136414,219.144791 266.377716,222.261307 264.107544,224.943741 
	C260.302551,229.439743 256.166901,233.655914 252.170410,237.989868 
z"/>
<path fill="#8FCAAD" opacity="1.000000" stroke="none" 
	d="
M252.104492,238.356384 
	C256.166901,233.655914 260.302551,229.439743 264.107544,224.943741 
	C266.377716,222.261307 268.136414,219.144791 270.110474,216.213608 
	C271.026215,214.853912 271.888184,213.457932 272.807129,212.100479 
	C277.381836,205.342911 281.857971,198.514832 286.589355,191.868576 
	C289.510529,187.765121 292.975311,184.050308 295.927673,179.966995 
	C299.722290,174.718796 305.374207,170.617935 306.336914,163.559387 
	C306.376495,163.269440 306.647125,162.912628 306.910004,162.765961 
	C313.009857,159.363007 313.802277,153.574310 313.977600,147.109299 
	C316.569031,148.746048 319.250641,150.495132 321.385345,152.759735 
	C322.689270,154.143005 323.783051,156.287109 323.876678,158.144653 
	C324.177002,164.103760 323.967773,170.088516 323.536865,176.550674 
	C322.100189,177.540558 320.756195,177.782837 320.114044,178.586166 
	C313.959869,186.284744 307.907013,194.064667 301.863831,201.851364 
	C299.692169,204.649582 296.465027,207.266174 295.748230,210.425873 
	C294.158020,217.435776 288.569427,221.436188 285.280640,227.016113 
	C280.410400,235.279236 270.916870,240.220261 268.876617,250.390335 
	C268.750214,251.020477 267.666351,251.458511 267.027954,251.985901 
	C262.355347,248.419800 257.649231,244.895859 253.050217,241.237305 
	C252.435364,240.748184 252.362457,239.577805 252.104492,238.356384 
z"/>
<path fill="#A6D6B5" opacity="1.000000" stroke="none" 
	d="
M58.005936,441.151001 
	C48.768116,441.151001 39.530296,441.151001 30.043087,441.151001 
	C30.043087,433.949127 30.043087,427.036224 30.043087,419.436798 
	C38.300102,419.436798 46.381233,419.518463 54.457981,419.366730 
	C56.041286,419.337006 57.607632,418.404144 59.651634,417.397827 
	C61.066822,415.509033 62.107754,414.163208 62.923573,412.692566 
	C63.457981,411.729126 63.441730,409.818909 64.055473,409.638733 
	C71.229240,407.532959 70.569656,398.888428 76.162956,395.388702 
	C78.269608,394.070618 79.859711,391.633575 81.181824,389.407623 
	C85.987701,381.316315 90.580482,373.098419 95.282684,364.877441 
	C96.508705,364.877441 98.902473,365.300964 99.105247,364.813324 
	C101.763855,358.420197 110.265846,355.872986 110.252586,347.665771 
	C110.250191,346.182495 111.937103,344.643555 112.977234,343.228149 
	C113.826324,342.072723 115.055786,341.175934 115.803238,339.970184 
	C119.611725,333.826630 123.284355,327.598938 127.080910,321.447845 
	C128.249054,319.555298 129.658432,317.811676 130.957367,315.999878 
	C131.009689,323.358521 131.061996,330.717133 130.708496,338.636414 
	C124.533470,346.823425 118.748016,354.437531 113.003365,362.082336 
	C110.817177,364.991577 108.685791,367.943970 106.596954,370.924042 
	C100.531471,379.577332 94.659973,388.371674 88.416458,396.893921 
	C79.925941,408.483246 71.042229,419.785248 62.599342,431.408173 
	C60.526257,434.262115 59.508736,437.882812 58.005936,441.151001 
z"/>
<path fill="#D5EFC7" opacity="1.000000" stroke="none" 
	d="
M151.167114,105.994919 
	C151.105820,91.702950 150.973740,77.410416 151.085953,63.119808 
	C151.097977,61.586746 152.160492,59.628773 153.362915,58.603569 
	C169.797623,44.591198 186.342041,30.707504 202.861603,16.794691 
	C205.893433,14.241284 208.934845,11.699244 212.374176,9.477964 
	C213.791443,12.599777 214.806320,15.395580 215.923935,18.474377 
	C213.266251,22.324701 210.259415,26.784683 207.142914,31.166683 
	C204.037445,35.533188 200.853622,39.845184 197.639893,44.132919 
	C196.264069,45.968536 194.633453,47.614605 193.276810,49.462917 
	C187.222992,57.710709 181.239868,66.010345 175.205093,74.272171 
	C169.343475,82.296974 163.444946,90.294823 157.586197,98.321709 
	C157.307693,98.703293 157.136215,99.247520 157.120285,99.722878 
	C156.990707,103.593468 154.528137,105.212379 151.167114,105.994919 
z"/>
<path fill="#BFE3BF" opacity="1.000000" stroke="none" 
	d="
M151.093506,177.454437 
	C152.386078,175.977081 153.863983,175.150299 154.786087,173.910233 
	C162.265152,163.852264 169.747253,153.792786 176.992737,143.566772 
	C179.806183,139.595978 181.766037,135.023041 184.552505,131.029861 
	C189.192657,124.380241 194.168503,117.963982 199.035690,111.473991 
	C202.593552,106.729858 206.120499,101.958527 209.819473,97.325668 
	C212.387131,94.109764 215.350143,91.208115 217.894836,87.975800 
	C219.537155,85.889732 220.742432,83.459587 222.484741,81.089691 
	C222.870316,90.685455 222.914673,100.375175 222.545578,110.511215 
	C220.565887,111.364876 218.281937,111.249512 217.545349,112.260986 
	C210.751038,121.590820 204.271561,131.148926 197.604584,140.572769 
	C192.297592,148.074249 189.189056,157.328598 180.476318,162.159683 
	C179.856094,162.503616 179.653442,163.555054 179.185425,164.227997 
	C178.004089,165.926697 176.777313,167.593719 175.577972,169.279984 
	C174.739365,170.459030 173.840652,171.603943 173.101151,172.843079 
	C171.450638,175.608734 170.001221,178.500671 168.248627,181.197372 
	C166.459763,183.949905 163.848862,186.297043 162.613556,189.246994 
	C161.159058,192.720398 159.094498,194.273590 155.510468,194.167282 
	C155.100891,193.894547 154.691299,193.621811 154.003357,192.951691 
	C153.506973,192.325348 153.254639,192.144257 152.967957,192.011002 
	C152.308182,190.384369 151.242844,188.797867 151.077072,187.122360 
	C150.776108,184.080673 151.010391,180.986038 151.093506,177.454437 
z"/>
<path fill="#A0D3B4" opacity="1.000000" stroke="none" 
	d="
M58.462578,441.265564 
	C59.508736,437.882812 60.526257,434.262115 62.599342,431.408173 
	C71.042229,419.785248 79.925941,408.483246 88.416458,396.893921 
	C94.659973,388.371674 100.531471,379.577332 106.596954,370.924042 
	C108.685791,367.943970 110.817177,364.991577 113.003365,362.082336 
	C118.748016,354.437531 124.533470,346.823425 130.623093,339.098328 
	C130.997192,349.023926 131.050888,359.048279 130.685440,369.606598 
	C125.400467,371.858459 123.251106,375.915314 121.396065,380.290222 
	C120.699142,381.933807 119.997269,383.773376 118.756866,384.956818 
	C109.618912,393.675476 102.016708,403.517456 96.105927,414.690338 
	C95.035774,416.713196 93.431404,418.447235 92.152054,420.366852 
	C87.694473,427.055237 81.326637,432.631531 80.008316,441.153900 
	C72.978615,441.229309 65.948914,441.304718 58.462578,441.265564 
z"/>
<path fill="#B8E0BC" opacity="1.000000" stroke="none" 
	d="
M155.679993,194.470642 
	C159.094498,194.273590 161.159058,192.720398 162.613556,189.246994 
	C163.848862,186.297043 166.459763,183.949905 168.248627,181.197372 
	C170.001221,178.500671 171.450638,175.608734 173.101151,172.843079 
	C173.840652,171.603943 174.739365,170.459030 175.577972,169.279984 
	C176.777313,167.593719 178.004089,165.926697 179.185425,164.227997 
	C179.653442,163.555054 179.856094,162.503616 180.476318,162.159683 
	C189.189056,157.328598 192.297592,148.074249 197.604584,140.572769 
	C204.271561,131.148926 210.751038,121.590820 217.545349,112.260986 
	C218.281937,111.249512 220.565887,111.364876 222.474991,110.974625 
	C222.864853,121.807426 222.911835,132.623169 222.463760,143.804520 
	C220.399887,144.837296 218.257339,145.065903 217.356842,146.243927 
	C212.133545,153.076950 207.287704,160.196732 202.152573,167.099289 
	C194.747513,177.053055 187.347656,187.017639 179.644485,196.739029 
	C176.829681,200.291290 173.154282,203.161591 169.871475,206.343002 
	C165.197495,202.486664 160.523514,198.630341 155.679993,194.470642 
z"/>
<path fill="#D0ECC4" opacity="1.000000" stroke="none" 
	d="
M131.042572,149.538544 
	C127.562088,153.481674 124.258293,157.052567 120.755875,160.416656 
	C118.377106,162.701447 118.505165,165.022034 120.823425,166.768143 
	C125.123039,170.006592 123.226273,173.074921 120.811646,175.915955 
	C116.233459,181.302643 111.573624,186.466705 109.060349,193.367798 
	C107.821503,196.769485 104.917107,199.607132 102.588036,202.559311 
	C99.103859,206.975616 95.468040,211.272507 91.882584,215.608490 
	C91.249084,216.374603 90.014610,217.046082 89.959602,217.824951 
	C89.496361,224.385605 84.148811,226.949142 80.021164,230.612640 
	C78.494652,231.967484 77.734047,234.159958 76.521530,235.898849 
	C73.510826,240.216522 70.776665,244.805801 67.219414,248.622360 
	C65.910431,250.026733 62.601456,249.567001 59.800774,249.960312 
	C59.331284,239.614960 59.265755,229.266815 59.622803,218.553589 
	C68.384560,222.613068 71.510323,221.142609 75.562103,212.392975 
	C77.950745,207.234802 81.408920,202.524475 84.736671,197.863022 
	C87.611961,193.835342 93.333771,192.035889 93.872375,186.050278 
	C93.940788,185.290039 95.633041,184.723129 96.491493,183.973328 
	C97.326805,183.243713 98.235390,182.503189 98.802010,181.577789 
	C100.840149,178.249069 102.495552,174.658829 104.766098,171.506287 
	C107.782822,167.317719 111.408180,163.570007 114.467079,159.408707 
	C118.399254,154.059402 121.450340,147.933594 125.984695,143.199402 
	C129.207092,139.834991 129.124832,137.478012 127.063416,134.173309 
	C127.857498,132.943573 128.651566,131.713837 129.445648,130.484100 
	C130.008652,130.770844 130.571671,131.057587 131.134674,131.344330 
	C131.134674,137.255630 131.134674,143.166916 131.042572,149.538544 
z"/>
<path fill="#D0ECC4" opacity="1.000000" stroke="none" 
	d="
M151.093536,106.458771 
	C154.528137,105.212379 156.990707,103.593468 157.120285,99.722878 
	C157.136215,99.247520 157.307693,98.703293 157.586197,98.321709 
	C163.444946,90.294823 169.343475,82.296974 175.205093,74.272171 
	C181.239868,66.010345 187.222992,57.710709 193.276810,49.462917 
	C194.633453,47.614605 196.264069,45.968536 197.639893,44.132919 
	C200.853622,39.845184 204.037445,35.533188 207.142914,31.166683 
	C210.259415,26.784683 213.266251,22.324701 215.923935,18.474377 
	C214.806320,15.395580 213.791443,12.599777 212.714264,9.332630 
	C212.920013,8.526453 213.188065,8.191620 213.960175,8.076887 
	C216.048706,8.437496 217.633194,8.578006 219.507248,8.744194 
	C219.233826,6.523242 219.058533,5.099279 218.883240,3.675317 
	C219.096039,3.309391 219.308838,2.943466 219.565536,2.365730 
	C220.484390,2.124233 221.359329,2.094547 222.670837,2.080575 
	C223.062286,12.752778 223.017166,23.409266 222.549438,34.569710 
	C221.251480,36.328976 220.390198,37.594383 219.498047,38.837643 
	C217.119644,42.152031 214.963821,45.662853 212.291977,48.722210 
	C206.908661,54.886314 199.365570,59.967464 196.211411,67.052589 
	C192.960602,74.354889 188.493896,80.232697 183.795578,86.251877 
	C180.783432,90.110847 177.427078,93.710693 174.550751,97.663696 
	C171.026230,102.507545 167.762436,107.549507 164.597702,112.637550 
	C164.132416,113.385590 164.835617,114.860413 164.998169,115.998978 
	C160.615936,120.312607 156.233704,124.626228 151.509216,128.965790 
	C151.117966,121.635353 151.068954,114.278984 151.093536,106.458771 
z"/>
<path fill="#A9D7B7" opacity="1.000000" stroke="none" 
	d="
M131.044006,315.538147 
	C129.658432,317.811676 128.249054,319.555298 127.080910,321.447845 
	C123.284355,327.598938 119.611725,333.826630 115.803238,339.970184 
	C115.055786,341.175934 113.826324,342.072723 112.977234,343.228149 
	C111.937103,344.643555 110.250191,346.182495 110.252586,347.665771 
	C110.265846,355.872986 101.763855,358.420197 99.105247,364.813324 
	C98.902473,365.300964 96.508705,364.877441 95.282684,364.877441 
	C90.580482,373.098419 85.987701,381.316315 81.181824,389.407623 
	C79.859711,391.633575 78.269608,394.070618 76.162956,395.388702 
	C70.569656,398.888428 71.229240,407.532959 64.055473,409.638733 
	C63.441730,409.818909 63.457981,411.729126 62.923573,412.692566 
	C62.107754,414.163208 61.066822,415.509033 59.774532,416.953552 
	C59.356964,409.300293 59.286331,401.601288 59.309101,393.440521 
	C60.264591,392.567261 61.453323,392.389557 61.940197,391.709473 
	C70.380768,379.919159 78.681152,368.028473 87.127563,356.242401 
	C92.551567,348.673767 98.238495,341.293549 103.662216,333.724731 
	C107.014236,329.046967 110.047829,324.142212 113.320396,319.405701 
	C114.431236,317.797943 115.878624,316.426727 117.089958,314.882904 
	C117.777618,314.006439 118.969742,312.842041 118.790176,312.075378 
	C117.111198,304.907379 122.732010,302.049896 126.680344,298.172424 
	C127.954498,296.921143 129.098831,295.537628 130.618622,294.106873 
	C131.000000,301.024902 131.065323,308.050690 131.044006,315.538147 
z"/>
<path fill="#D5EFC7" opacity="1.000000" stroke="none" 
	d="
M126.747650,134.271576 
	C129.124832,137.478012 129.207092,139.834991 125.984695,143.199402 
	C121.450340,147.933594 118.399254,154.059402 114.467079,159.408707 
	C111.408180,163.570007 107.782822,167.317719 104.766098,171.506287 
	C102.495552,174.658829 100.840149,178.249069 98.802010,181.577789 
	C98.235390,182.503189 97.326805,183.243713 96.491493,183.973328 
	C95.633041,184.723129 93.940788,185.290039 93.872375,186.050278 
	C93.333771,192.035889 87.611961,193.835342 84.736671,197.863022 
	C81.408920,202.524475 77.950745,207.234802 75.562103,212.392975 
	C71.510323,221.142609 68.384560,222.613068 59.714294,218.093002 
	C59.308659,210.008072 59.058914,202.013519 59.292648,194.033112 
	C59.345745,192.220215 60.655327,189.958069 62.096134,188.746536 
	C77.659340,175.659744 93.373039,162.752060 109.014565,149.758057 
	C110.258209,148.724915 111.270645,147.413437 112.897705,146.008530 
	C113.633942,145.611862 113.825912,145.403763 113.980774,145.161423 
	C118.131142,141.564224 122.281517,137.967026 126.747650,134.271576 
z"/>
<path fill="#98CFB0" opacity="1.000000" stroke="none" 
	d="
M80.465744,441.264282 
	C81.326637,432.631531 87.694473,427.055237 92.152054,420.366852 
	C93.431404,418.447235 95.035774,416.713196 96.105927,414.690338 
	C102.016708,403.517456 109.618912,393.675476 118.756866,384.956818 
	C119.997269,383.773376 120.699142,381.933807 121.396065,380.290222 
	C123.251106,375.915314 125.400467,371.858459 130.605072,370.069183 
	C130.995789,381.688995 131.047729,393.380188 130.684189,405.613098 
	C128.604660,408.504456 127.061043,410.951752 125.251343,413.183289 
	C121.544571,417.754059 117.348579,421.968445 114.005165,426.781860 
	C110.887154,431.270752 108.613022,436.345856 105.967422,441.162903 
	C97.619347,441.233521 89.271263,441.304108 80.465744,441.264282 
z"/>
<path fill="#A0D3B4" opacity="1.000000" stroke="none" 
	d="
M294.952393,130.492004 
	C293.022125,133.086411 290.573059,135.170929 288.954926,137.772324 
	C287.699371,139.790817 287.481445,142.454758 286.701294,145.185455 
	C285.857391,144.991348 284.398376,144.655792 282.180725,144.145737 
	C283.180115,146.208618 283.845734,147.582535 285.047852,150.063843 
	C275.384369,143.796112 273.816864,154.579391 268.269958,156.780807 
	C268.034241,156.874374 269.493042,161.237625 270.363983,164.326614 
	C280.923706,157.207092 290.463959,151.144836 296.134766,139.917740 
	C297.417511,140.949677 298.552216,141.862534 298.795563,142.058273 
	C295.512909,147.525162 292.881287,152.546463 289.644867,157.141815 
	C285.248474,163.384155 280.329346,169.255630 275.745361,175.369324 
	C270.917206,181.808609 266.217377,188.344162 261.465820,194.840805 
	C258.567963,198.802948 255.678238,202.771072 252.476852,206.862061 
	C252.120407,191.966461 252.071976,176.945312 252.462616,161.452698 
	C253.680969,160.765427 254.793396,160.805649 255.187057,160.293457 
	C258.442841,156.057266 261.624847,151.760880 264.716064,147.402435 
	C270.967865,138.587692 277.148468,129.722488 283.358459,120.878113 
	C287.169434,123.986977 290.980438,127.095848 294.952393,130.492004 
z"/>
<path fill="#88C6AB" opacity="1.000000" stroke="none" 
	d="
M267.199646,252.270813 
	C267.666351,251.458511 268.750214,251.020477 268.876617,250.390335 
	C270.916870,240.220261 280.410400,235.279236 285.280640,227.016113 
	C288.569427,221.436188 294.158020,217.435776 295.748230,210.425873 
	C296.465027,207.266174 299.692169,204.649582 301.863831,201.851364 
	C307.907013,194.064667 313.959869,186.284744 320.114044,178.586166 
	C320.756195,177.782837 322.100189,177.540558 323.470459,177.014557 
	C323.862274,187.347733 323.902130,197.704361 323.513123,208.532059 
	C320.446869,210.799072 317.273163,212.138107 315.277588,214.480774 
	C310.262756,220.367859 305.745880,226.682571 301.095795,232.875748 
	C297.742371,237.341965 294.440247,241.849655 291.244263,246.428879 
	C290.530151,247.452118 290.263336,248.828888 289.949005,250.082626 
	C288.631561,255.337128 284.550262,258.690948 278.963745,258.926575 
	C278.926270,258.854370 278.741638,258.839905 278.741638,258.839905 
	C278.741638,258.839905 278.998779,259.001221 279.139709,259.362305 
	C279.421906,260.486359 279.563141,261.249329 279.704376,262.012268 
	C275.593353,258.860077 271.482330,255.707886 267.199646,252.270813 
z"/>
<path fill="#B0DCB9" opacity="1.000000" stroke="none" 
	d="
M170.033478,206.624451 
	C173.154282,203.161591 176.829681,200.291290 179.644485,196.739029 
	C187.347656,187.017639 194.747513,177.053055 202.152573,167.099289 
	C207.287704,160.196732 212.133545,153.076950 217.356842,146.243927 
	C218.257339,145.065903 220.399887,144.837296 222.395706,144.227814 
	C222.867783,154.888565 222.912842,165.491638 222.472580,176.528061 
	C220.096375,178.145340 217.686050,178.927216 216.404572,180.582840 
	C210.868256,187.735596 205.584991,195.089401 200.360199,202.476501 
	C196.001373,208.639221 191.852005,214.950089 187.609879,221.195343 
	C181.805084,216.432190 176.000275,211.669037 170.033478,206.624451 
z"/>
<path fill="#7FC1A7" opacity="1.000000" stroke="none" 
	d="
M180.007263,441.135864 
	C175.643402,441.207520 171.279556,441.279205 166.458664,440.833008 
	C166.669922,438.409943 166.814468,435.387695 168.094620,434.787506 
	C174.639877,431.718781 175.205048,425.453979 177.023132,419.796265 
	C182.440704,419.796265 187.858276,419.796265 194.040451,419.796265 
	C194.040451,404.578247 194.040451,390.248047 194.411377,375.327545 
	C198.307892,371.006470 201.641479,367.066010 205.417679,363.608978 
	C208.648331,360.651337 212.409088,358.277344 215.892090,355.589111 
	C218.243713,353.774109 220.520065,351.861603 222.830093,349.992706 
	C222.870499,361.016022 222.910889,372.039337 222.538635,383.550720 
	C220.723450,385.070190 218.947922,385.834778 217.985016,387.180725 
	C214.416672,392.168518 211.362900,397.537903 207.627884,402.388245 
	C205.165314,405.586182 200.410309,407.651245 199.255646,411.088318 
	C197.054932,417.639038 194.177719,423.015228 188.630386,427.324921 
	C185.961426,429.398438 184.440216,432.999908 182.549255,436.003906 
	C181.537552,437.611084 180.844254,439.418701 180.007263,441.135864 
z"/>
<path fill="#81C2A8" opacity="1.000000" stroke="none" 
	d="
M279.842529,262.267334 
	C279.563141,261.249329 279.421906,260.486359 279.140320,259.361694 
	C279.000000,259.000000 279.001221,258.998779 279.001221,258.998779 
	C284.550262,258.690948 288.631561,255.337128 289.949005,250.082626 
	C290.263336,248.828888 290.530151,247.452118 291.244263,246.428879 
	C294.440247,241.849655 297.742371,237.341965 301.095795,232.875748 
	C305.745880,226.682571 310.262756,220.367859 315.277588,214.480774 
	C317.273163,212.138107 320.446869,210.799072 323.451080,208.996368 
	C323.861755,219.680283 323.905548,230.370987 323.582733,241.655792 
	C322.103149,244.025558 321.193207,245.975174 319.844513,247.548798 
	C310.562897,258.378510 301.206482,269.144470 291.803864,279.869293 
	C291.239563,280.512970 290.070740,280.626709 289.183228,280.987061 
	C290.674316,272.560242 287.191040,266.612549 279.842529,262.267334 
z"/>
<path fill="#A0D3B4" opacity="1.000000" stroke="none" 
	d="
M194.166046,280.988953 
	C194.122681,264.632263 194.079315,248.275574 194.417435,231.335510 
	C196.895203,229.115768 199.041916,227.538452 201.062729,225.813660 
	C201.859467,225.133652 202.243668,223.965271 203.048004,223.300262 
	C204.510071,222.091461 206.030472,220.419998 207.730103,220.128479 
	C213.599991,219.121643 219.155853,218.162003 220.278000,210.787796 
	C220.386322,210.076019 221.944839,209.584946 222.830170,208.991409 
	C222.871857,222.014572 222.913544,235.037735 222.520233,248.532959 
	C220.504150,250.174271 218.574402,251.069748 217.403381,252.561020 
	C212.763245,258.470093 208.609665,264.776764 203.759872,270.498840 
	C201.488800,273.178406 197.784760,274.555267 197.573120,278.909912 
	C197.536835,279.656372 195.356125,280.298584 194.166046,280.988953 
z"/>
<path fill="#77BCA3" opacity="1.000000" stroke="none" 
	d="
M289.118591,281.452637 
	C290.070740,280.626709 291.239563,280.512970 291.803864,279.869293 
	C301.206482,269.144470 310.562897,258.378510 319.844513,247.548798 
	C321.193207,245.975174 322.103149,244.025558 323.524170,242.120636 
	C323.872803,252.349747 323.913452,262.708130 323.581146,273.656250 
	C319.988373,279.208984 316.900116,284.264313 313.504639,289.104065 
	C311.043152,292.612579 308.070679,295.758301 305.510986,299.203186 
	C301.318329,304.845764 297.363556,310.667084 293.089294,316.245056 
	C292.324249,317.243439 290.500275,317.430389 289.165222,317.992035 
	C289.128143,305.967438 289.091064,293.942841 289.118591,281.452637 
z"/>
<path fill="#68B6A0" opacity="1.000000" stroke="none" 
	d="
M323.892456,343.521423 
	C322.736176,344.666748 321.264587,345.091187 320.585602,346.067078 
	C314.994629,354.102905 309.698944,362.346771 304.015350,370.314728 
	C299.499786,376.645203 294.564331,382.676147 289.486755,388.910645 
	C289.118317,376.960754 289.078400,364.940308 289.427887,352.381989 
	C294.724152,346.159302 300.553131,341.020050 304.316650,334.658813 
	C309.649261,325.645386 316.669952,318.334595 323.831635,310.995453 
	C323.869263,321.682343 323.906891,332.369263 323.892456,343.521423 
z"/>
<path fill="#70BAA2" opacity="1.000000" stroke="none" 
	d="
M323.888855,310.530121 
	C316.669952,318.334595 309.649261,325.645386 304.316650,334.658813 
	C300.553131,341.020050 294.724152,346.159302 289.492432,351.916626 
	C289.123840,340.966980 289.080139,329.944855 289.100830,318.457397 
	C290.500275,317.430389 292.324249,317.243439 293.089294,316.245056 
	C297.363556,310.667084 301.318329,304.845764 305.510986,299.203186 
	C308.070679,295.758301 311.043152,292.612579 313.504639,289.104065 
	C316.900116,284.264313 319.988373,279.208984 323.520874,274.121216 
	C323.871063,286.019226 323.908600,298.042023 323.888855,310.530121 
z"/>
<path fill="#97CEB0" opacity="1.000000" stroke="none" 
	d="
M194.095520,281.453735 
	C195.356125,280.298584 197.536835,279.656372 197.573120,278.909912 
	C197.784760,274.555267 201.488800,273.178406 203.759872,270.498840 
	C208.609665,264.776764 212.763245,258.470093 217.403381,252.561020 
	C218.574402,251.069748 220.504150,250.174271 222.457611,248.997223 
	C222.872452,260.014374 222.914902,271.039337 222.579987,282.642029 
	C220.868835,285.240875 219.652679,287.352417 218.180237,289.266846 
	C212.813065,296.245178 207.276093,303.094299 201.982590,310.127228 
	C199.962952,312.810486 198.505630,315.911102 196.614639,318.701324 
	C196.157486,319.375885 194.996216,319.573242 194.158752,319.990051 
	C194.114151,307.299500 194.069580,294.609009 194.095520,281.453735 
z"/>
<path fill="#78BEA5" opacity="1.000000" stroke="none" 
	d="
M180.467636,441.230713 
	C180.844254,439.418701 181.537552,437.611084 182.549255,436.003906 
	C184.440216,432.999908 185.961426,429.398438 188.630386,427.324921 
	C194.177719,423.015228 197.054932,417.639038 199.255646,411.088318 
	C200.410309,407.651245 205.165314,405.586182 207.627884,402.388245 
	C211.362900,397.537903 214.416672,392.168518 217.985016,387.180725 
	C218.947922,385.834778 220.723450,385.070190 222.478363,384.015411 
	C222.871841,392.349609 222.912949,400.707214 222.566833,409.683777 
	C221.328110,412.700897 220.968155,415.454865 219.536316,417.432922 
	C214.505341,424.382965 209.069000,431.038391 203.893219,437.886322 
	C203.254929,438.730896 203.260254,440.061920 202.967316,441.167542 
	C195.620895,441.220215 188.274445,441.272858 180.467636,441.230713 
z"/>
<path fill="#8FCAAD" opacity="1.000000" stroke="none" 
	d="
M194.089722,320.454987 
	C194.996216,319.573242 196.157486,319.375885 196.614639,318.701324 
	C198.505630,315.911102 199.962952,312.810486 201.982590,310.127228 
	C207.276093,303.094299 212.813065,296.245178 218.180237,289.266846 
	C219.652679,287.352417 220.868835,285.240875 222.517181,283.106506 
	C222.873093,293.350494 222.914444,303.707825 222.584015,314.658569 
	C218.581146,320.510834 216.692062,327.172485 209.928986,329.931610 
	C208.944916,330.333038 208.656647,332.404175 208.014297,333.686615 
	C206.726395,336.257996 205.563690,338.907959 204.073242,341.357544 
	C202.629501,343.730255 200.959366,345.993744 199.164307,348.115356 
	C197.668533,349.883240 195.847672,351.376038 194.170792,352.990662 
	C194.120758,342.300415 194.070724,331.610168 194.089722,320.454987 
z"/>
<path fill="#C9E8C2" opacity="1.000000" stroke="none" 
	d="
M165.295990,115.824615 
	C164.835617,114.860413 164.132416,113.385590 164.597702,112.637550 
	C167.762436,107.549507 171.026230,102.507545 174.550751,97.663696 
	C177.427078,93.710693 180.783432,90.110847 183.795578,86.251877 
	C188.493896,80.232697 192.960602,74.354889 196.211411,67.052589 
	C199.365570,59.967464 206.908661,54.886314 212.291977,48.722210 
	C214.963821,45.662853 217.119644,42.152031 219.498047,38.837643 
	C220.390198,37.594383 221.251480,36.328976 222.481384,35.033569 
	C222.881760,42.351963 222.927551,49.710453 222.904541,57.532921 
	C221.950104,58.350044 220.690445,58.444565 220.238785,59.097767 
	C216.994415,63.790051 213.951172,68.621017 210.740524,73.337463 
	C210.274521,74.022011 209.167114,74.845772 208.507462,74.731750 
	C203.141296,73.804207 202.745834,77.653496 201.635971,81.635063 
	C198.918472,84.154655 196.675812,86.399918 194.206009,88.358765 
	C190.360703,91.408531 190.257431,92.548576 193.993454,96.008987 
	C192.612549,96.222885 190.628540,97.117981 189.960571,96.526596 
	C187.698227,94.523659 186.124832,95.294128 184.469482,97.047119 
	C179.609238,102.193977 174.811935,107.401459 169.882889,112.481262 
	C168.661636,113.739853 167.034424,114.604523 165.295990,115.824615 
z"/>
<path fill="#A9D7B7" opacity="1.000000" stroke="none" 
	d="
M222.895508,208.527344 
	C221.944839,209.584946 220.386322,210.076019 220.278000,210.787796 
	C219.155853,218.162003 213.599991,219.121643 207.730103,220.128479 
	C206.030472,220.419998 204.510071,222.091461 203.048004,223.300262 
	C202.243668,223.965271 201.859467,225.133652 201.062729,225.813660 
	C199.041916,227.538452 196.895203,229.115768 194.485077,230.870468 
	C195.005814,225.957825 190.463318,224.565552 187.781036,221.496979 
	C191.852005,214.950089 196.001373,208.639221 200.360199,202.476501 
	C205.584991,195.089401 210.868256,187.735596 216.404572,180.582840 
	C217.686050,178.927216 220.096375,178.145340 222.406250,176.943817 
	C222.870468,187.305252 222.915649,197.684265 222.895508,208.527344 
z"/>
<path fill="#94C7A7" opacity="1.000000" stroke="none" 
	d="
M363.076874,456.746307 
	C365.943451,457.472260 370.835236,453.311798 370.629333,460.551392 
	C363.301514,461.111755 356.507202,460.912201 349.764587,461.411407 
	C336.565521,462.388580 323.413574,464.041992 310.208344,464.886505 
	C294.646942,465.881775 279.049835,466.319763 263.467896,466.992462 
	C255.175461,467.350525 246.881104,467.666321 238.589981,468.052216 
	C231.130920,468.399384 223.660507,468.636414 216.221039,469.241241 
	C202.351776,470.368683 188.521606,472.060303 174.637924,472.905579 
	C157.756073,473.933350 140.832199,474.260040 123.938759,475.128693 
	C122.571495,475.199005 121.298943,477.111115 119.982376,478.167358 
	C105.599251,478.262695 91.216118,478.358032 76.422684,477.950073 
	C77.738426,476.644501 79.433784,475.223419 81.195267,475.136078 
	C98.188614,474.293457 115.193085,473.675415 132.194305,472.991028 
	C132.526489,472.977631 132.857407,472.935669 133.189285,472.912048 
	C151.374054,471.617737 169.560059,470.340393 187.741745,469.004181 
	C189.515488,468.873840 191.262589,468.380920 193.419617,468.049927 
	C194.879440,468.035645 195.941681,468.027710 197.467987,468.025513 
	C203.062531,467.706482 208.193130,467.383179 213.323517,467.056824 
	C234.260849,465.724854 255.197769,464.386444 276.135559,463.061707 
	C286.895264,462.380951 297.650452,461.597656 308.418396,461.085602 
	C324.999786,460.297119 341.593323,459.761017 358.172577,458.934357 
	C359.839569,458.851227 361.443604,457.505890 363.076874,456.746307 
z"/>
<path fill="#C0E4BF" opacity="1.000000" stroke="none" 
	d="
M10.029766,474.997253 
	C9.975704,474.548370 9.921641,474.099487 10.271275,473.240601 
	C15.389130,472.221130 20.088013,471.291260 24.820473,471.065643 
	C36.432430,470.512054 48.081665,470.614258 59.676311,469.851105 
	C80.643341,468.471130 101.575790,466.573853 122.534218,465.051361 
	C132.427582,464.332672 142.347488,463.979248 152.255569,463.464081 
	C161.507065,462.983032 170.758865,462.507568 180.010483,462.028778 
	C199.561859,461.016937 219.115677,460.047028 238.659622,458.907654 
	C240.138290,458.821442 241.546677,457.529480 242.987747,456.798035 
	C255.676819,456.712524 268.365906,456.626984 281.429260,457.008301 
	C279.048706,457.983215 276.266418,458.378387 273.548279,459.037842 
	C271.650391,459.498291 269.840302,460.320496 267.658752,460.981567 
	C266.883484,460.982544 266.440491,460.983032 265.663330,460.754700 
	C261.552460,460.686707 257.775818,460.847565 253.600449,461.008423 
	C252.138550,461.009430 251.075333,461.010406 249.728088,461.057190 
	C248.963165,461.396820 248.482254,461.690674 247.626007,461.986267 
	C246.499954,461.988373 245.749237,461.988739 244.661499,461.758392 
	C240.142960,461.413696 235.699081,459.079407 231.576309,462.986389 
	C229.772934,462.988586 228.385712,462.989136 226.665085,462.759827 
	C217.586075,462.728607 208.838928,462.884674 200.097748,463.204803 
	C199.376495,463.231232 198.696030,464.371277 197.748093,464.996948 
	C197.499573,465.000000 197.002548,465.007324 196.533615,465.003540 
	C187.974533,465.002777 179.876480,464.795624 171.797592,465.098907 
	C167.848663,465.247162 163.935410,466.345398 159.589111,467.012268 
	C157.782639,467.016083 156.393066,467.021271 154.535187,467.018555 
	C138.636490,467.688141 123.205368,468.350769 107.777405,469.079926 
	C106.842293,469.124115 105.932182,469.697266 104.610008,470.021149 
	C103.141754,470.022705 102.073936,470.027405 100.538963,470.023376 
	C81.408928,471.020203 62.744293,471.996338 44.087734,473.107971 
	C43.023964,473.171326 42.026234,474.342957 40.623238,474.998047 
	C39.499645,474.999817 38.750584,475.002350 37.532722,475.001221 
	C28.052532,474.997467 19.041149,474.997375 10.029766,474.997253 
z"/>
<path fill="#EDFBCF" opacity="1.000000" stroke="none" 
	d="
M10.025764,465.999451 
	C10.025764,463.052948 10.025764,460.106415 10.025764,456.573242 
	C54.802479,456.573242 99.414345,456.573242 144.407471,457.032379 
	C143.008408,457.995300 141.246338,458.850250 139.444656,458.944092 
	C130.001938,459.435760 120.529320,459.464172 111.104088,460.156952 
	C91.505516,461.597565 71.949295,463.662811 52.338913,464.878143 
	C38.265415,465.750275 24.132288,465.660248 10.025764,465.999451 
z"/>
<path fill="#93CDAF" opacity="1.000000" stroke="none" 
	d="
M120.436981,478.291351 
	C121.298943,477.111115 122.571495,475.199005 123.938759,475.128693 
	C140.832199,474.260040 157.756073,473.933350 174.637924,472.905579 
	C188.521606,472.060303 202.351776,470.368683 216.221039,469.241241 
	C223.660507,468.636414 231.130920,468.399384 238.589981,468.052216 
	C246.881104,467.666321 255.175461,467.350525 263.467896,466.992462 
	C279.049835,466.319763 294.646942,465.881775 310.208344,464.886505 
	C323.413574,464.041992 336.565521,462.388580 349.764587,461.411407 
	C356.507202,460.912201 363.301514,461.111755 370.534271,460.996521 
	C371.036316,461.443695 371.076569,461.889771 370.599365,462.668884 
	C368.585663,463.018799 367.081482,462.941986 365.594299,463.067200 
	C350.335571,464.351959 335.090210,465.815460 319.818848,466.922241 
	C310.892181,467.569153 301.923920,467.628235 292.976990,468.012665 
	C285.689453,468.325806 278.396637,468.600800 271.122253,469.118835 
	C254.000824,470.338196 236.901154,471.892578 219.769714,472.933502 
	C204.111237,473.884949 188.417694,474.253540 172.754395,475.140259 
	C171.087051,475.234680 169.518875,477.080505 167.904694,478.113800 
	C152.233658,478.214294 136.562622,478.314819 120.436981,478.291351 
z"/>
<path fill="#81C2A8" opacity="1.000000" stroke="none" 
	d="
M168.356430,478.269470 
	C169.518875,477.080505 171.087051,475.234680 172.754395,475.140259 
	C188.417694,474.253540 204.111237,473.884949 219.769714,472.933502 
	C236.901154,471.892578 254.000824,470.338196 271.122253,469.118835 
	C278.396637,468.600800 285.689453,468.325806 292.976990,468.012665 
	C301.923920,467.628235 310.892181,467.569153 319.818848,466.922241 
	C335.090210,465.815460 350.335571,464.351959 365.594299,463.067200 
	C367.081482,462.941986 368.585663,463.018799 370.528137,462.999115 
	C371.022400,464.065521 371.070435,465.134705 370.580627,466.603821 
	C355.321991,467.766052 340.593262,468.401703 325.882446,469.323242 
	C308.350342,470.421509 290.843414,471.934631 273.307220,472.951538 
	C257.573547,473.863953 241.810852,474.273621 226.074448,475.147675 
	C224.682709,475.224976 223.390686,477.097504 222.052353,478.136230 
	C204.304291,478.232513 186.556229,478.328827 168.356430,478.269470 
z"/>
<path fill="#88C6AB" opacity="1.000000" stroke="none" 
	d="
M194.102783,353.455566 
	C195.847672,351.376038 197.668533,349.883240 199.164307,348.115356 
	C200.959366,345.993744 202.629501,343.730255 204.073242,341.357544 
	C205.563690,338.907959 206.726395,336.257996 208.014297,333.686615 
	C208.656647,332.404175 208.944916,330.333038 209.928986,329.931610 
	C216.692062,327.172485 218.581146,320.510834 222.520935,315.123108 
	C222.869400,326.350403 222.909149,337.706635 222.889496,349.527802 
	C220.520065,351.861603 218.243713,353.774109 215.892090,355.589111 
	C212.409088,358.277344 208.648331,360.651337 205.417679,363.608978 
	C201.641479,367.066010 198.307892,371.006470 194.474823,374.861877 
	C194.123169,367.964478 194.078979,360.942474 194.102783,353.455566 
z"/>
<path fill="#D0ECC4" opacity="1.000000" stroke="none" 
	d="
M242.535004,456.675140 
	C241.546677,457.529480 240.138290,458.821442 238.659622,458.907654 
	C219.115677,460.047028 199.561859,461.016937 180.010483,462.028778 
	C170.758865,462.507568 161.507065,462.983032 152.255569,463.464081 
	C142.347488,463.979248 132.427582,464.332672 122.534218,465.051361 
	C101.575790,466.573853 80.643341,468.471130 59.676311,469.851105 
	C48.081665,470.614258 36.432430,470.512054 24.820473,471.065643 
	C20.088013,471.291260 15.389130,472.221130 10.363847,472.911621 
	C9.981944,471.923523 9.911163,470.854431 10.399103,469.393097 
	C21.706018,468.552643 32.454506,468.111298 43.202297,467.653625 
	C50.171333,467.356903 57.155178,467.235779 64.104485,466.684326 
	C77.948540,465.585815 91.763649,464.118591 105.609940,463.053589 
	C113.386780,462.455444 121.204056,462.398834 128.999573,462.024628 
	C149.562469,461.037537 170.125717,460.051208 190.680435,458.913177 
	C192.158234,458.831360 193.568268,457.525452 195.009811,456.788696 
	C210.700623,456.709900 226.391434,456.631073 242.535004,456.675140 
z"/>
<path fill="#81C2A8" opacity="1.000000" stroke="none" 
	d="
M176.576202,419.668396 
	C175.205048,425.453979 174.639877,431.718781 168.094620,434.787506 
	C166.814468,435.387695 166.669922,438.409943 166.001801,440.737488 
	C153.941437,441.220459 141.880890,441.281006 129.440308,440.878540 
	C133.773102,435.710632 138.646027,431.150696 143.109055,426.219727 
	C144.604919,424.567017 145.055756,421.968414 145.984268,419.802155 
	C156.032608,419.714935 166.080948,419.627716 176.576202,419.668396 
z"/>
<path fill="#8FCAAD" opacity="1.000000" stroke="none" 
	d="
M145.530914,419.688751 
	C145.055756,421.968414 144.604919,424.567017 143.109055,426.219727 
	C138.646027,431.150696 133.773102,435.710632 129.040085,440.779846 
	C121.590866,441.242004 114.161842,441.339813 106.350128,441.300293 
	C108.613022,436.345856 110.887154,431.270752 114.005165,426.781860 
	C117.348579,421.968445 121.544571,417.754059 125.251343,413.183289 
	C127.061043,410.951752 128.604660,408.504456 130.606506,406.076080 
	C130.944321,410.260895 130.944321,414.524445 130.944321,419.575348 
	C136.217102,419.575348 140.647324,419.575348 145.530914,419.688751 
z"/>
<path fill="#70BAA2" opacity="1.000000" stroke="none" 
	d="
M222.508575,478.236694 
	C223.390686,477.097504 224.682709,475.224976 226.074448,475.147675 
	C241.810852,474.273621 257.573547,473.863953 273.307220,472.951538 
	C290.843414,471.934631 308.350342,470.421509 325.882446,469.323242 
	C340.593262,468.401703 355.321991,467.766052 370.509216,467.001007 
	C371.020905,468.065063 371.066193,469.131927 370.598145,470.616455 
	C352.965210,472.344849 335.848236,473.690857 318.725098,474.953033 
	C308.352661,475.717590 297.978058,476.513855 287.590332,476.987946 
	C280.785004,477.298523 273.952972,476.981049 267.136383,477.118622 
	C265.400085,477.153656 263.677155,477.850220 261.948059,478.242859 
	C260.910706,478.271301 259.873322,478.299713 258.171051,478.037598 
	C255.299896,477.939148 253.093658,478.131256 250.887421,478.323364 
	C241.579880,478.327942 232.272339,478.332550 222.508575,478.236694 
z"/>
<path fill="#70BAA2" opacity="1.000000" stroke="none" 
	d="
M203.320145,441.308136 
	C203.260254,440.061920 203.254929,438.730896 203.893219,437.886322 
	C209.069000,431.038391 214.505341,424.382965 219.536316,417.432922 
	C220.968155,415.454865 221.328110,412.700897 222.506531,410.148621 
	C222.833450,412.933167 222.833450,415.871857 222.833450,419.555450 
	C228.627335,419.555450 233.842316,419.555450 239.548447,419.984253 
	C239.077957,423.387482 238.464340,426.537537 237.072830,429.295044 
	C235.005646,433.391510 232.388077,437.210205 230.004761,441.147125 
	C221.227509,441.247650 212.450241,441.348175 203.320145,441.308136 
z"/>
<path fill="#A6D6B5" opacity="1.000000" stroke="none" 
	d="
M283.180878,120.584106 
	C277.148468,129.722488 270.967865,138.587692 264.716064,147.402435 
	C261.624847,151.760880 258.442841,156.057266 255.187057,160.293457 
	C254.793396,160.805649 253.680969,160.765427 252.531189,160.988190 
	C252.114151,153.304749 252.067627,145.614334 252.458832,137.455765 
	C254.093124,136.544479 255.741776,136.454407 256.409973,135.598709 
	C259.761383,131.306976 262.911835,126.853592 266.022339,122.380112 
	C268.217194,119.223457 269.111633,114.368187 274.832794,116.188591 
	C275.079987,116.267235 275.666656,115.278862 276.095184,114.787544 
	C278.397888,116.621727 280.700592,118.455910 283.180878,120.584106 
z"/>
<path fill="#D5EFC7" opacity="1.000000" stroke="none" 
	d="
M194.556824,456.660553 
	C193.568268,457.525452 192.158234,458.831360 190.680435,458.913177 
	C170.125717,460.051208 149.562469,461.037537 128.999573,462.024628 
	C121.204056,462.398834 113.386780,462.455444 105.609940,463.053589 
	C91.763649,464.118591 77.948540,465.585815 64.104485,466.684326 
	C57.155178,467.235779 50.171333,467.356903 43.202297,467.653625 
	C32.454506,468.111298 21.706018,468.552643 10.491615,469.000061 
	C9.954565,468.243896 9.883723,467.488556 9.919323,466.366364 
	C24.132288,465.660248 38.265415,465.750275 52.338913,464.878143 
	C71.949295,463.662811 91.505516,461.597565 111.104088,460.156952 
	C120.529320,459.464172 130.001938,459.435760 139.444656,458.944092 
	C141.246338,458.850250 143.008408,457.995300 144.856842,457.149384 
	C161.317902,456.715637 177.710876,456.624023 194.556824,456.660553 
z"/>
<path fill="#68B6A0" opacity="1.000000" stroke="none" 
	d="
M230.466812,441.233978 
	C232.388077,437.210205 235.005646,433.391510 237.072830,429.295044 
	C238.464340,426.537537 239.077957,423.387482 239.992889,420.108978 
	C248.321869,419.714691 256.697510,419.624481 265.526428,419.658875 
	C264.392303,422.950500 262.956696,426.205811 261.179077,429.262238 
	C258.962585,433.073242 256.464264,436.720306 254.017303,440.804138 
	C246.274277,441.220367 238.601578,441.270599 230.466812,441.233978 
z"/>
<path fill="#ACD9B8" opacity="1.000000" stroke="none" 
	d="
M275.957733,114.508850 
	C275.666656,115.278862 275.079987,116.267235 274.832794,116.188591 
	C269.111633,114.368187 268.217194,119.223457 266.022339,122.380112 
	C262.911835,126.853592 259.761383,131.306976 256.409973,135.598709 
	C255.741776,136.454407 254.093124,136.544479 252.528320,136.991394 
	C252.160080,123.094818 252.160080,109.194443 252.160080,94.190605 
	C258.408539,99.472908 264.116241,104.298080 269.982300,109.683456 
	C270.735718,110.567345 271.330811,110.891006 271.925873,111.214676 
	C273.223999,112.219833 274.522156,113.224991 275.957733,114.508850 
z"/>
<path fill="#52A18A" opacity="1.000000" stroke="none" 
	d="
M262.324799,478.404938 
	C263.677155,477.850220 265.400085,477.153656 267.136383,477.118622 
	C273.952972,476.981049 280.785004,477.298523 287.590332,476.987946 
	C297.978058,476.513855 308.352661,475.717590 318.725098,474.953033 
	C335.848236,473.690857 352.965210,472.344849 370.553253,471.016052 
	C372.357788,478.519257 372.149445,478.799896 364.877441,478.801575 
	C332.474915,478.809174 300.072388,478.810333 267.669861,478.797791 
	C266.013733,478.797150 264.357635,478.647369 262.324799,478.404938 
z"/>
<path fill="#ACD9B8" opacity="1.000000" stroke="none" 
	d="
M226.998489,462.989716 
	C228.385712,462.989136 229.772934,462.988586 232.037445,462.991821 
	C236.942657,462.660095 240.970596,462.324615 244.998520,461.989136 
	C245.749237,461.988739 246.499954,461.988373 247.820023,462.146240 
	C248.930283,461.873444 249.471207,461.442413 250.012115,461.011353 
	C251.075333,461.010406 252.138550,461.009430 253.934601,461.238281 
	C258.444122,461.306549 262.220795,461.145020 265.997498,460.983459 
	C266.440491,460.983032 266.883484,460.982544 268.125183,460.987823 
	C283.837280,460.324554 298.753082,459.700073 313.659424,458.898956 
	C314.805237,458.837372 315.884155,457.530731 316.994202,456.802795 
	C332.086334,456.718018 347.178436,456.633209 362.673706,456.647339 
	C361.443604,457.505890 359.839569,458.851227 358.172577,458.934357 
	C341.593323,459.761017 324.999786,460.297119 308.418396,461.085602 
	C297.650452,461.597656 286.895264,462.380951 276.135559,463.061707 
	C255.197769,464.386444 234.260849,465.724854 213.323517,467.056824 
	C208.193130,467.383179 203.062531,467.706482 197.466644,467.648438 
	C197.001678,466.512848 197.002106,465.760101 197.002548,465.007324 
	C197.002548,465.007324 197.499573,465.000000 198.217072,465.000305 
	C203.092407,464.999664 207.269928,465.253296 211.403107,464.933624 
	C216.620468,464.530090 221.801682,463.659088 226.998489,462.989716 
z"/>
<path fill="#ACD9B8" opacity="1.000000" stroke="none" 
	d="
M38.001526,475.004883 
	C38.750584,475.002350 39.499645,474.999817 41.092136,474.999298 
	C44.763931,475.001282 47.596405,475.101013 50.419971,474.984589 
	C65.959702,474.343903 81.501114,473.719788 97.028870,472.854980 
	C98.402763,472.778442 99.682594,471.013062 101.006119,470.032074 
	C102.073936,470.027405 103.141754,470.022705 104.948715,470.250183 
	C121.581993,469.912720 137.476837,469.360596 153.367310,468.702515 
	C153.934875,468.679016 154.459076,467.608826 155.003494,467.026489 
	C156.393066,467.021271 157.782639,467.016083 159.918762,467.240845 
	C162.454483,467.637726 164.250168,467.998230 166.031723,467.938354 
	C174.092361,467.667297 182.147766,467.237274 190.208817,466.985107 
	C191.134491,466.956177 192.083725,467.681030 193.022049,468.056335 
	C191.262589,468.380920 189.515488,468.873840 187.741745,469.004181 
	C169.560059,470.340393 151.374054,471.617737 133.189285,472.912048 
	C132.857407,472.935669 132.526489,472.977631 132.194305,472.991028 
	C115.193085,473.675415 98.188614,474.293457 81.195267,475.136078 
	C79.433784,475.223419 77.738426,476.644501 75.975121,477.796448 
	C63.595036,478.234131 51.252209,478.322083 38.456875,477.958984 
	C38.003418,476.673584 38.002472,475.839233 38.001526,475.004883 
z"/>
<path fill="#B8E0BC" opacity="1.000000" stroke="none" 
	d="
M316.540771,456.681305 
	C315.884155,457.530731 314.805237,458.837372 313.659424,458.898956 
	C298.753082,459.700073 283.837280,460.324554 268.457428,460.987305 
	C269.840302,460.320496 271.650391,459.498291 273.548279,459.037842 
	C276.266418,458.378387 279.048706,457.983215 281.877625,457.134796 
	C293.330200,456.716217 304.708771,456.638000 316.540771,456.681305 
z"/>
<path fill="#B0DCB9" opacity="1.000000" stroke="none" 
	d="
M37.532722,475.001221 
	C38.002472,475.839233 38.003418,476.673584 38.010139,477.820618 
	C29.484653,478.244232 20.952703,478.430023 12.423194,478.351379 
	C11.561234,478.343445 10.713989,476.739380 9.944839,475.436646 
	C19.041149,474.997375 28.052532,474.997467 37.532722,475.001221 
z"/>
<path fill="#D5EFC7" opacity="1.000000" stroke="none" 
	d="
M218.566483,3.775211 
	C219.058533,5.099279 219.233826,6.523242 219.507248,8.744194 
	C217.633194,8.578006 216.048706,8.437496 214.182144,8.047110 
	C215.349945,6.489856 216.799850,5.182481 218.566483,3.775211 
z"/>
<path fill="#52A18A" opacity="1.000000" stroke="none" 
	d="
M251.281708,478.468750 
	C253.093658,478.131256 255.299896,477.939148 257.783264,478.000305 
	C255.932281,478.373749 253.804138,478.493958 251.281708,478.468750 
z"/>
<path fill="#A6D6B5" opacity="1.000000" stroke="none" 
	d="
M271.789490,110.937767 
	C271.330811,110.891006 270.735718,110.567345 270.126465,109.973053 
	C270.625885,110.021912 271.139465,110.341385 271.789490,110.937767 
z"/>
<path fill="#D0ECC4" opacity="1.000000" stroke="none" 
	d="
M113.739227,145.180298 
	C113.825912,145.403763 113.633942,145.611862 113.223114,145.897156 
	C113.033447,145.648575 113.185555,145.378769 113.739227,145.180298 
z"/>
<path fill="#B8E0BC" opacity="1.000000" stroke="none" 
	d="
M153.024841,192.270462 
	C153.254639,192.144257 153.506973,192.325348 153.871185,192.737045 
	C153.705505,192.789841 153.393631,192.659882 153.024841,192.270462 
z"/>
<path fill="#BFE3BF" opacity="1.000000" stroke="none" 
	d="
M194.378738,96.001938 
	C190.257431,92.548576 190.360703,91.408531 194.206009,88.358765 
	C196.675812,86.399918 198.918472,84.154655 201.631165,82.018852 
	C203.063248,83.628922 204.127090,85.257919 205.619797,87.543594 
	C202.042145,90.328819 198.403091,93.161858 194.378738,96.001938 
z"/>
<path fill="#81C2A8" opacity="1.000000" stroke="none" 
	d="
M278.999390,259.000610 
	C278.998779,259.001221 278.741638,258.839905 278.741638,258.839905 
	C278.741638,258.839905 278.926270,258.854370 278.963745,258.926575 
	C279.001221,258.998779 279.000000,259.000000 278.999390,259.000610 
z"/>
<path fill="#B0DCB9" opacity="1.000000" stroke="none" 
	d="
M193.419617,468.049927 
	C192.083725,467.681030 191.134491,466.956177 190.208817,466.985107 
	C182.147766,467.237274 174.092361,467.667297 166.031723,467.938354 
	C164.250168,467.998230 162.454483,467.637726 160.335648,467.242218 
	C163.935410,466.345398 167.848663,465.247162 171.797592,465.098907 
	C179.876480,464.795624 187.974533,465.002777 196.533615,465.003540 
	C197.002106,465.760101 197.001678,466.512848 197.002594,467.642700 
	C195.941681,468.027710 194.879440,468.035645 193.419617,468.049927 
z"/>
<path fill="#B0DCB9" opacity="1.000000" stroke="none" 
	d="
M100.538971,470.023376 
	C99.682594,471.013062 98.402763,472.778442 97.028870,472.854980 
	C81.501114,473.719788 65.959702,474.343903 50.419971,474.984589 
	C47.596405,475.101013 44.763931,475.001282 41.466667,475.000061 
	C42.026234,474.342957 43.023964,473.171326 44.087734,473.107971 
	C62.744293,471.996338 81.408928,471.020203 100.538971,470.023376 
z"/>
<path fill="#B0DCB9" opacity="1.000000" stroke="none" 
	d="
M154.535187,467.018555 
	C154.459076,467.608826 153.934875,468.679016 153.367310,468.702515 
	C137.476837,469.360596 121.581993,469.912720 105.349152,470.253296 
	C105.932182,469.697266 106.842293,469.124115 107.777405,469.079926 
	C123.205368,468.350769 138.636490,467.688141 154.535187,467.018555 
z"/>
<path fill="#B8E0BC" opacity="1.000000" stroke="none" 
	d="
M226.665085,462.759827 
	C221.801682,463.659088 216.620468,464.530090 211.403107,464.933624 
	C207.269928,465.253296 203.092407,464.999664 198.465607,464.997253 
	C198.696030,464.371277 199.376495,463.231232 200.097748,463.204803 
	C208.838928,462.884674 217.586075,462.728607 226.665085,462.759827 
z"/>
<path fill="#B8E0BC" opacity="1.000000" stroke="none" 
	d="
M244.661499,461.758392 
	C240.970596,462.324615 236.942657,462.660095 232.453598,462.990173 
	C235.699081,459.079407 240.142960,461.413696 244.661499,461.758392 
z"/>
<path fill="#B8E0BC" opacity="1.000000" stroke="none" 
	d="
M265.663330,460.754669 
	C262.220795,461.145020 258.444122,461.306549 254.333282,461.238220 
	C257.775818,460.847565 261.552460,460.686707 265.663330,460.754669 
z"/>
<path fill="#B8E0BC" opacity="1.000000" stroke="none" 
	d="
M249.728088,461.057159 
	C249.471207,461.442413 248.930283,461.873444 248.195374,462.144501 
	C248.482254,461.690674 248.963165,461.396820 249.728088,461.057159 
z"/>
</svg>